<svg xmlns="http://www.w3.org/2000/svg" width="420" height="594" viewBox="0 0 420 594">
  <rect width="420" height="594" fill="#ffffff"/>
  <rect width="420" height="126" fill="#f0f7fd"/>
  <rect x="0" y="112" width="420" height="34" rx="16" fill="#ffffff"/>
  <text x="42" y="58" fill="#1f242b" font-family="Arial, sans-serif" font-size="20" font-weight="800">蓝芯</text>
  <text x="42" y="86" fill="#1f242b" font-family="Arial, sans-serif" font-size="11">产品 / 运营 / 校招</text>
  <rect x="326" y="38" width="48" height="64" rx="7" fill="#d9e2ec"/>
  <rect x="30" y="154" width="1" height="388" fill="#b8bac2"/>
  <g fill="#3a8ec7">
    <rect x="27" y="158" width="6" height="22" rx="3"/>
    <rect x="27" y="258" width="6" height="22" rx="3"/>
    <rect x="27" y="378" width="6" height="22" rx="3"/>
    <rect x="27" y="486" width="6" height="22" rx="3"/>
  </g>
  <g font-family="Arial, sans-serif">
    <text x="58" y="178" fill="#1f242b" font-size="17" font-weight="800">教育经历</text>
    <rect x="58" y="200" width="104" height="8" rx="4" fill="#1f242b"/>
    <rect x="58" y="220" width="286" height="6" rx="3" fill="#89929e"/>
    <text x="58" y="278" fill="#1f242b" font-size="17" font-weight="800">实习经历</text>
    <rect x="58" y="300" width="138" height="8" rx="4" fill="#1f242b"/>
    <rect x="58" y="320" width="310" height="6" rx="3" fill="#89929e"/>
    <rect x="58" y="336" width="292" height="6" rx="3" fill="#89929e"/>
    <rect x="58" y="352" width="270" height="6" rx="3" fill="#89929e"/>
    <text x="58" y="398" fill="#1f242b" font-size="17" font-weight="800">校园经历</text>
    <rect x="58" y="420" width="126" height="8" rx="4" fill="#1f242b"/>
    <rect x="58" y="440" width="300" height="6" rx="3" fill="#89929e"/>
    <rect x="58" y="456" width="260" height="6" rx="3" fill="#89929e"/>
    <text x="58" y="506" fill="#1f242b" font-size="17" font-weight="800">职业技能</text>
    <rect x="58" y="528" width="278" height="6" rx="3" fill="#89929e"/>
    <rect x="58" y="544" width="236" height="6" rx="3" fill="#89929e"/>
  </g>
</svg>
