<svg xmlns="http://www.w3.org/2000/svg" viewBox="0 0 20 20" fill="none">
        <path stroke="currentColor" stroke-width="1.5"
            d="M5.306 13.343L1.73 14.968a.34.34 0 0 1-.45-.449l1.626-3.575 9.197-9.197a1.697 1.697 0 0 1 2.4 2.4l-9.198 9.196z">
        </path>
        <path fill="currentColor"
            d="M15.625 8.75l1.361 3.014L20 13.125l-3.014 1.361-1.361 3.014-1.361-3.014-3.014-1.361 3.014-1.361 1.361-3.014zM8.75 15l.849 1.651 1.651.849-1.651.849L8.75 20l-.849-1.651L6.25 17.5l1.651-.849L8.75 15z">
        </path>
    </svg>