<svg xmlns="http://www.w3.org/2000/svg" viewBox="0 0 16 16" fill="none">
        <path fill="#682AEF"
            d="M7.216.936c.337-.278.876-.493 1.462-.208.55.269 1.028.659 1.346 1.204.32.547.443 1.191.38 1.907l-.002.023c-.049.566-.096 1.119-.146 1.572l2.507-.297a1.743 1.743 0 0 1 .566.046 2.25 2.25 0 0 1 1.664 2.382l-.444 5.402a2.25 2.25 0 0 1-2.24 2.037H5V5.336c.324-.41.537-.737.72-1.11.255-.521.465-1.158.802-2.277a.748.748 0 0 1 .025-.071c.131-.316.352-.681.67-.942zM4 6h-.5a2.25 2.25 0 0 0-2.25 2.25v4.5A2.25 2.25 0 0 0 3.5 15H4V6z">
        </path>
    </svg>