<svg xmlns="http://www.w3.org/2000/svg" viewBox="0 0 16 16" fill="none">
        <path stroke="#757575" stroke-linejoin="round"
            d="M5.505 6.618L5.5 14.5m9.246-6.75l-.444 5.397a1.5 1.5 0 0 1-1.493 1.357H5.5l.004-7.886c0-.301.049-.3.186-.46C6.839 4.811 7.2 4 7.74 2.416c.202-.487.635-.994 1.109-.763.892.436 1.41 1.193 1.308 2.372-.07.81-.135 1.558-.204 2.043-.031.222.167.447.389.421l3.009-.357c.096-.003.193.001.287.026a1.5 1.5 0 0 1 1.108 1.592zM5.5 6.5H2.8a.3.3 0 0 0-.3.3v7.4a.3.3 0 0 0 .3.3h2.7">
        </path>
    </svg>