<svg xmlns="http://www.w3.org/2000/svg" viewBox="0 0 16 16" fill="none">
        <path stroke="#0D0D0D" stroke-opacity=".9"
            d="M13.5 8V2a.5.5 0 0 0-.5-.5H3a.5.5 0 0 0-.5.5v12a.5.5 0 0 0 .5.5h5"></path>
        <path stroke="#333" stroke-linecap="round"
            d="M6.714 3.5L8 5.19m0 0L6.502 8.805a.01.01 0 0 0 .002.01l1.489 1.677a.01.01 0 0 0 .014 0l1.489-1.677a.01.01 0 0 0 .002-.01L8 5.19zm0 0L9.286 3.5">
        </path>
        <path stroke="#0D0D0D" stroke-linecap="round" stroke-linejoin="round" stroke-opacity=".9"
            d="M12 9a3 3 0 0 1-3 3"></path>
        <path stroke="#682AEF" stroke-linecap="round" stroke-linejoin="round"
            d="M12 9a3 3 0 0 1-3 3M12 15a3 3 0 0 0-3-3M15 12a3 3 0 0 1-3-3M15 12a3 3 0 0 0-3 3"></path>
    </svg>