<svg xmlns="http://www.w3.org/2000/svg" viewBox="0 0 103 32" fill="none">
        <rect width="96.001" height="32" x="7" fill="#000" fill-opacity=".8" rx="2"></rect>
        <path fill="#000" fill-opacity=".8" fill-rule="evenodd"
            d="M7.027 22V10a.499.499 0 0 1-.161.367l-5.704 5.266a.5.5 0 0 0 0 .734l5.704 5.266c.107.098.16.232.16.367z"
            clip-rule="evenodd"></path>
        <path fill="#fff"
            d="M22.956 22.031l-.48-.68c.117-.128.199-.261.246-.398.05-.152.076-.363.076-.633v-2.232h-1.342c-.066.848-.191 1.56-.375 2.139a8.099 8.099 0 0 1-.808 1.716 10.829 10.829 0 0 0-.704-.65c.309-.531.536-1.01.68-1.436.16-.468.27-1.015.328-1.64.059-.582.088-1.389.088-2.42v-4.395h9v2.625h-8.139v1.612c0 .636-.011 1.207-.035 1.71h2.291v-1.288h-1.945v-.715h1.945V14.32h.85v1.026h2.25V14.32h.838v1.026h2.01v.715h-2.01v1.289h2.478v.738H25.64c.379.613.777 1.09 1.195 1.43 1.094-.547 1.809-.938 2.145-1.172l.48.668c-.098.047-.285.142-.563.287-.601.308-1.062.54-1.382.697.62.355 1.56.672 2.818.95-.195.3-.348.57-.457.808-.953-.246-1.74-.526-2.361-.838a5.658 5.658 0 0 1-1.6-1.166c-.414-.441-.781-.996-1.101-1.664h-1.166v2.771l2.033-.662a8.048 8.048 0 0 0 0 .873c-.579.157-1.215.362-1.91.616a11.67 11.67 0 0 0-.815.345zm1.676-4.681h2.25v-1.29h-2.25v1.29zm-3.106-4.038h7.29v-1.154h-7.29v1.155zm11.045 8.731c-.246-.3-.48-.568-.703-.803.684-.422 1.197-.81 1.541-1.166.371-.39.637-.84.797-1.347.152-.485.238-1.127.258-1.928h-2.772v-.902h2.784v-3.335h-2.262v-.884h9.762v.884h-2.121v3.335h2.601v.902h-2.602v5.12H38.9V16.8h-3.486c-.031.922-.13 1.67-.299 2.244a4.226 4.226 0 0 1-.867 1.6c-.383.441-.941.908-1.676 1.4zm2.854-6.146h3.474v-3.335h-3.474v3.335zm9.44 6.035V11.479h8.25v10.453h-.927v-.85H45.79v.85h-.926zm.925-1.7h6.398v-2.144H45.79v2.144zm0-2.953h6.398v-2.056H45.79v2.056zm0-2.86h6.398v-2.09H45.79v2.09zm11.385 7.571v-5.982c-.305 1-.754 1.99-1.348 2.97a3.596 3.596 0 0 0-.07-.269 11.54 11.54 0 0 0-.258-.879c.73-1.078 1.29-2.346 1.676-3.803h-1.442v-.814h1.442v-2.291h.832v2.29h1.306v.815h-1.306v1.858l.346-.346c.414.402.857.867 1.33 1.395l-.563.615a36.658 36.658 0 0 0-1.113-1.307v5.748h-.832zm3.58-.105a12.034 12.034 0 0 0-.17-.938c.27.016.65.024 1.142.024.278 0 .467-.053.569-.159.105-.105.158-.302.158-.591v-4.506h-2.918v-.826h6.797v.826h-2.994v4.764c0 .457-.104.796-.31 1.019-.212.227-.552.346-1.02.357a36.618 36.618 0 0 1-1.254.03zm-1.049-1.125a10.79 10.79 0 0 0-.797-.428 32.76 32.76 0 0 0 1.688-3.486l.82.299a81.427 81.427 0 0 1-1.71 3.615zm5.959-.035a94.384 94.384 0 0 0-1.535-3.534l.762-.357c.449.93.978 2.092 1.588 3.486l-.815.405zm-5.637-8.174v-.826h5.79v.826h-5.79zm8.367 9.404v-7.312h9.2v5.625c0 .558-.102.955-.305 1.189-.207.242-.57.371-1.09.387a30.04 30.04 0 0 1-1.588.04l-.017-.122a10.438 10.438 0 0 0-.164-.791c.449.031.937.047 1.465.047.296 0 .501-.061.615-.182.113-.125.17-.342.17-.65v-4.729H69.31v6.498h-.915zm1.876-1.166a9.448 9.448 0 0 0-.569-.768 23.597 23.597 0 0 0 2.649-1.757 215.304 215.304 0 0 0-2.245-1.664l.534-.616c.43.301 1.046.743 1.851 1.325.25.175.436.308.557.398a32.802 32.802 0 0 0 1.974-1.81l.64.556c-.77.738-1.411 1.324-1.923 1.758.953.707 1.68 1.254 2.18 1.64l-.592.715c-.328-.261-.806-.634-1.435-1.119a177.16 177.16 0 0 0-.844-.656 34.866 34.866 0 0 1-2.778 1.998zm-1.74-7.23v-2.18h.872v1.377h3.117v-1.858h.885v1.858h3.117v-1.377h.885v2.18H68.53zm12.515 8.472v-6.615c-.39.73-.783 1.379-1.178 1.945-.09-.359-.201-.74-.334-1.142.516-.785.961-1.6 1.336-2.444.371-.832.719-1.79 1.043-2.877l.885.287a36.04 36.04 0 0 1-.862 2.362v8.484h-.89zm1.594-.568v-.873h3.914c.332-.906.672-1.885 1.02-2.936.39-1.172.71-2.197.96-3.076l.95.287a332.458 332.458 0 0 1-1.97 5.725h2.93v.873H82.64zm2.285-1.846a62.48 62.48 0 0 0-1.389-4.752l.873-.258c.281.856.713 2.27 1.295 4.243.067.218.115.38.147.486l-.926.281zm-1.992-5.789v-.861h3.445c-.25-.711-.475-1.334-.674-1.87l.932-.187.181.492c.235.637.405 1.114.51 1.43l-.65.135h3.48v.861h-7.224z">
        </path>
    </svg>