<svg xmlns="http://www.w3.org/2000/svg" viewBox="0 0 16 16" fill="none">
        <path fill="#682AEF"
            d="M7.216 15.068c.337.277.876.492 1.462.207.55-.268 1.028-.658 1.346-1.203.32-.547.443-1.192.38-1.907l-.002-.024a76.28 76.28 0 0 0-.146-1.571l2.507.297a1.747 1.747 0 0 0 .566-.045 2.25 2.25 0 0 0 1.664-2.384l-.444-5.402A2.25 2.25 0 0 0 12.309 1H5v9.668c.324.41.537.737.72 1.11.255.52.465 1.157.802 2.277a.743.743 0 0 0 .025.071c.131.315.352.681.67.942zM4 10.004h-.5a2.25 2.25 0 0 1-2.25-2.25v-4.5a2.25 2.25 0 0 1 2.25-2.25H4v9z">
        </path>
    </svg>