<svg xmlns="http://www.w3.org/2000/svg" viewBox="0 0 16 16" fill="none">
        <path stroke="#757575" stroke-linejoin="round"
            d="M5.505 10.383L5.5 2.5m9.246 6.75l-.444-5.396a1.5 1.5 0 0 0-1.493-1.358H5.5l.004 7.886c0 .301.049.3.186.46C6.839 12.19 7.2 13 7.74 14.585c.202.486.635.993 1.109.762.892-.435 1.41-1.193 1.308-2.371-.07-.81-.135-1.559-.204-2.044-.031-.221.167-.447.389-.42l3.009.356a.999.999 0 0 0 .287-.026 1.5 1.5 0 0 0 1.108-1.592zM5.5 10.5H2.8a.3.3 0 0 1-.3-.3V2.8a.3.3 0 0 1 .3-.3h2.7">
        </path>
    </svg>