<svg xmlns="http://www.w3.org/2000/svg" viewBox="0 0 16 16" fill="none">
        <g clip-path="url(#svg-ai-warn_clip0_4598_39025)">
            <path fill="#E2651A" fill-rule="evenodd"
                d="M9.738 2.023c-.764-1.359-2.721-1.359-3.486 0L.262 12.02C-.488 13.353.475 15 2.005 15h11.98c1.53 0 2.507-1.647 1.757-2.98L9.738 2.023zM9 6a1 1 0 1 0-2 0v3a1 1 0 1 0 2 0V6zm-1 5a1 1 0 1 0 0 2 1 1 0 0 0 0-2z"
                clip-rule="evenodd"></path>
        </g>
        <defs>
            <clipPath id="svg-ai-warn_clip0_4598_39025">
                <path fill="#fff" d="M0 0h16v16H0z"></path>
            </clipPath>
        </defs>
    </svg>