<svg xmlns="http://www.w3.org/2000/svg" viewBox="0 0 41 21" fill="none">
        <rect width="40" height="20" x=".5" y=".5" fill="#FCF2E0" rx="4"></rect>
        <path fill="#C25010"
            d="M8.84 5.932h1.404l4.236 6.18h.048v-6.18h1.416V14.5h-1.368l-4.284-6.264h-.048V14.5H8.84V5.932zm11.31 2.196c1.02 0 1.8.336 2.34 1.032.491.624.743 1.5.743 2.616H18.59c.048.576.204 1.02.468 1.32.264.3.648.456 1.14.456.42 0 .756-.096 1.02-.288.204-.156.384-.408.552-.756h1.368a2.817 2.817 0 0 1-.864 1.452c-.552.468-1.236.708-2.064.708-.924 0-1.656-.288-2.196-.852-.576-.588-.864-1.392-.864-2.424 0-.924.264-1.692.816-2.316.528-.636 1.26-.948 2.184-.948zm.035 1.116c-.456 0-.804.12-1.068.384-.252.252-.42.624-.504 1.116h3.192c-.12-1.008-.66-1.5-1.62-1.5zm3.473-.948h1.512l1.236 4.584 1.224-4.584h1.26l1.224 4.584 1.236-4.584h1.512L30.774 14.5h-1.272l-1.236-4.536-1.248 4.536h-1.272l-2.088-6.204z">
        </path>
    </svg>