<svg xmlns="http://www.w3.org/2000/svg" viewBox="0 0 16 16" fill="none">
        <g fill="none" fill-rule="evenodd">
            <path d="M0 0h16v16H0z"></path>
            <path fill="currentColor"
                d="M13.845 2.905l-5.097 5.11 5.064 5.077a.53.53 0 0 1-.235.89.528.528 0 0 1-.513-.14L8 8.765l-5.064 5.077a.528.528 0 0 1-.748 0 .531.531 0 0 1 0-.75l5.064-5.077-5.097-5.11a.531.531 0 0 1 0-.75.528.528 0 0 1 .748 0L8 7.265l5.097-5.11a.528.528 0 0 1 .748 0 .531.531 0 0 1 0 .75z"
                opacity=".8"></path>
        </g>
    </svg>