<svg xmlns="http://www.w3.org/2000/svg" viewBox="0 0 16 16" fill="none">
        <g fill="none" fill-rule="nonzero">
            <path fill="#FFF"
                d="M9.5 6h-5c-.3 0-.5-.2-.5-.5s.2-.5.5-.5h5c.3 0 .5.2.5.5s-.2.5-.5.5zm-5 1h2a.5.5 0 0 1 0 1h-2a.5.5 0 0 1 0-1z">
            </path>
            <path fill="#FFF"
                d="M13.5 6c-.3 0-.5-.2-.5-.5V3h-1c-.6 0-1-.5-1-1V1H2.6c-.3 0-.6.3-.6.6v12.8c0 .3.3.6.6.6h3.9c.3 0 .5.2.5.5s-.2.5-.5.5H2.6c-.9 0-1.6-.7-1.6-1.6V1.6C1 .7 1.7 0 2.6 0h9.1L14 2.3v3.2c0 .3-.2.5-.5.5z">
            </path>
            <path fill="#5087E5"
                d="M13.397 11.5a2 2 0 0 1 1.952 1.567l.152.683A1.85 1.85 0 0 1 13.695 16h-3.39a1.848 1.848 0 0 1-1.804-2.25l.152-.685a2 2 0 0 1 1.952-1.565h2.792zm-3.768 1.783l-.152.684A.848.848 0 0 0 10.305 15h3.39a.85.85 0 0 0 .83-1.033l-.152-.684a1 1 0 0 0-.976-.783h-2.792a1 1 0 0 0-.976.783z">
            </path>
            <path fill="#FFF"
                d="M13.397 11.5a2 2 0 0 1 1.952 1.567l.152.683A1.85 1.85 0 0 1 13.695 16h-3.39a1.848 1.848 0 0 1-1.804-2.25l.152-.685a2 2 0 0 1 1.952-1.565h2.792zm0 1h-2.792a1 1 0 0 0-.976.783l-.152.684A.848.848 0 0 0 10.305 15h3.39a.85.85 0 0 0 .83-1.033l-.152-.684a1 1 0 0 0-.976-.783zM12 7a2 2 0 1 1 0 4 2 2 0 0 1 0-4zm0 1a1 1 0 1 0 0 2 1 1 0 0 0 0-2z">
            </path>
        </g>
    </svg>