<svg xmlns="http://www.w3.org/2000/svg" viewBox="0 0 32 32" fill="none">
        <defs>
            <linearGradient id="svg-download-pdf_a" x1="0%" y1="0%" y2="100%">
                <stop offset="0%" stop-color="#F26B69"></stop>
                <stop offset="100%" stop-color="#E54B47"></stop>
            </linearGradient>
        </defs>
        <g fill="none" fill-rule="evenodd">
            <path fill="url(#svg-download-pdf_a)"
                d="M2.564 0h22.872c.892 0 1.215.093 1.54.267.327.174.583.43.757.756.174.326.267.65.267 1.54v22.873c0 .892-.093 1.215-.267 1.54-.174.327-.43.583-.756.757-.326.174-.65.267-1.54.267H2.563c-.892 0-1.215-.093-1.54-.267a1.817 1.817 0 0 1-.757-.756C.093 26.65 0 26.327 0 25.437V2.563c0-.892.093-1.215.267-1.54.174-.327.43-.583.756-.757C1.35.093 1.673 0 2.563 0z"
                transform="translate(2 2)"></path>
            <path fill="#FFF" fill-rule="nonzero"
                d="M16 15a1 1 0 0 1-2 0v-5a1 1 0 0 1 1-1h3c3.064 0 5.032 2.222 5.002 5.01C22.972 16.778 20.987 19 18 19h-5.138c-1.178 0-1.83.647-1.83 1.5s.652 1.5 1.83 1.5H14v-1a1 1 0 0 1 2 0v2a1 1 0 0 1-1 1h-2.138c-2.28 0-3.83-1.54-3.83-3.5s1.55-3.5 3.83-3.5H18c1.832 0 2.983-1.29 3.002-3.01C21.02 12.266 19.899 11 18 11h-2v4z">
            </path>
        </g>
    </svg>