<svg xmlns="http://www.w3.org/2000/svg" viewBox="0 0 32 32" fill="none">
        <defs>
            <linearGradient id="svg-download-doc_a" x1="4.805%" x2="100%" y1="4.805%" y2="100%">
                <stop offset="0%" stop-color="#65A3F5"></stop>
                <stop offset="100%" stop-color="#3383EE"></stop>
            </linearGradient>
        </defs>
        <g fill="none" fill-rule="nonzero">
            <path fill="url(#svg-download-doc_a)"
                d="M2.564 0h22.872c.892 0 1.215.093 1.54.267.327.174.583.43.757.756.174.326.267.65.267 1.54v22.873c0 .892-.093 1.215-.267 1.54-.174.327-.43.583-.756.757-.326.174-.65.267-1.54.267H2.563c-.892 0-1.215-.093-1.54-.267a1.817 1.817 0 0 1-.757-.756C.093 26.65 0 26.327 0 25.437V2.563c0-.892.093-1.215.267-1.54.174-.327.43-.583.756-.757C1.35.093 1.673 0 2.563 0z"
                transform="translate(2 2)"></path>
            <path fill="#FFF"
                d="M10.733 22.68C10.114 23.346 9 22.91 9 22V10a1 1 0 1 1 2 0v9.453l4.267-4.595a1 1 0 0 1 1.466 0L21 19.453V10a1 1 0 0 1 2 0v12c0 .909-1.114 1.346-1.733.68L16 17.008l-5.267 5.672z">
            </path>
        </g>
    </svg>