<svg xmlns="http://www.w3.org/2000/svg" viewBox="0 0 16 16" fill="none">
        <g fill="#FFF" fill-rule="nonzero">
            <path
                d="M8.886 1.31l1.122.644c1.235.715 2.998 1.747 3.36 1.984.513.334.632.719.632 1.26v5.15c0 .777-.298 1.242-.787 1.515l-3.564 2.08c-.383.226-.636.378-.758.457-.53.338-1.155.352-1.782 0l-1.377-.8a736.193 736.193 0 0 1-2.785-1.643c-.867-.515-.93-1.007-.935-1.59v-5.17c.011-.61.254-1.028.823-1.379l1.797-1.057c1.045-.61 2.192-1.277 2.482-1.452.512-.309 1.105-.375 1.772 0zm-.49.87c-.268-.15-.461-.165-.673-.065l-.092.05-4.165 2.44-.202.127c-.171.12-.231.217-.248.391l-.005.094v5.142l.006.19c.017.271.092.34.44.548l1.247.737 2.895 1.694c.304.17.534.17.754.029l.208-.13.325-.195 3.84-2.243c.193-.107.274-.255.274-.642V5.102c-.005-.17-.026-.22-.123-.29l-.196-.125-.864-.517c-.62-.366-1.415-.832-2.106-1.233L8.396 2.18z">
            </path>
            <path
                d="M7.072 6.382a4.33 4.33 0 0 1 1.11-2.294c.594.667.869 1.56.753 2.446a4.017 4.017 0 0 1-1.14 2.324c-.509-.722-.855-1.618-.723-2.476zm.1 3.35a3.25 3.25 0 0 1-.537 1.206c-.67-.614-1.4-1.253-1.395-2.278a3.908 3.908 0 0 1 1.134-2.736 4.19 4.19 0 0 0 .73 2.89s.203.23.067.917zm1.568-.898a7.204 7.204 0 0 1 2.659-1.31A4.696 4.696 0 0 1 9.987 9.98c-.775.655-1.65.968-2.654 1.116.129-.919.621-1.646 1.407-2.262z">
            </path>
        </g>
    </svg>