<svg xmlns="http://www.w3.org/2000/svg" viewBox="0 0 32 32" fill="none">
        <defs>
            <linearGradient id="svg-download-img_a" x1="0%" y1="0%" y2="100%">
                <stop offset="0%" stop-color="#B765E0"></stop>
                <stop offset="100%" stop-color="#9843C3"></stop>
            </linearGradient>
        </defs>
        <g fill="none" fill-rule="evenodd">
            <path fill="url(#svg-download-img_a)"
                d="M2.564 0h22.872c.892 0 1.215.093 1.54.267.327.174.583.43.757.756.174.326.267.65.267 1.54v22.873c0 .892-.093 1.215-.267 1.54-.174.327-.43.583-.756.757-.326.174-.65.267-1.54.267H2.563c-.892 0-1.215-.093-1.54-.267a1.817 1.817 0 0 1-.757-.756C.093 26.65 0 26.327 0 25.437V2.563c0-.892.093-1.215.267-1.54.174-.327.43-.583.756-.757C1.35.093 1.673 0 2.563 0z"
                transform="translate(2 2)"></path>
            <path fill="#FFF" fill-rule="nonzero"
                d="M20.175 11.917c1.972 0 3.578 4.493 4.258 6.131.151.365 2.254 4.952-2.742 4.952-2.816 0-8.243-.014-10.283-.014-4.511 0-3.681-2.077-2.37-4.86 1.482-3.1 2.364-4.14 3.424-4.14.771 0 1.245.524 1.546 1.023.3.498.934 1.783 1.626 1.783.7 0 1.862-2.48 2.298-3.176.387-.618.846-1.7 2.243-1.7zm-.108 2.049l-.084.125c-.063.095-.327.54-.355.586-.062.098-.622 1.122-.806 1.44-.204.35-.394.657-.582.933-.782 1.141-1.408 1.742-2.606 1.742-1.317 0-2.065-.71-2.835-1.905-.1-.155-.28-.46-.397-.66-.392.49-.895 1.372-1.554 2.75-.448.951-.694 1.568-.797 1.901.3.065.753.108 1.357.108h.967l3.887.007h.424l.342.001c2.19.004 3.6.006 4.663.006 1.208 0 1.298-.084 1.309-.535.006-.293-.064-.67-.191-1.067a5.613 5.613 0 0 0-.224-.584c-.064-.155-.396-.979-.498-1.228a28.376 28.376 0 0 0-.637-1.446c-.397-.828-.78-1.477-1.13-1.902a2.574 2.574 0 0 0-.253-.272zM12 8a2 2 0 1 1 0 4 2 2 0 0 1 0-4z">
            </path>
        </g>
    </svg>