<svg xmlns="http://www.w3.org/2000/svg" viewBox="0 0 23 23" fill="none">
        <g fill="none" fill-rule="evenodd">
            <rect width="22" height="22" x=".5" y=".5" fill="#FFF" stroke="#2C69F9" rx="2"></rect>
            <path fill="#2C69F9" fill-rule="nonzero"
                d="M16.81 10.214c-.024.048-.02.105-.06.145-.041.04-.1.035-.148.06l-7.78 7.668c-.938.923-2.816.913-4.338.913-.342 0-.484-.212-.484-.53 0-1.456.009-3.344.917-4.237L7.6 11.587l3.935-3.878 1.143-1.126c.026-.055.023-.118.068-.163.046-.044.11-.041.165-.067l2.122-2.091a.911.911 0 0 1 1.28 0l2.625 2.59c.353.35-.884 2.135-2.128 3.362zM5.739 14.802C4.96 15.58 5 17.348 5 18c.574 0 2.433.016 3.191-.743L16 9.455 13.546 7l-7.808 7.802zM15.95 5.08a.27.27 0 0 0-.382 0L14 6.646 16.352 9l1.569-1.567a.268.268 0 0 0 0-.38l-1.97-1.974z">
            </path>
        </g>
    </svg>