<svg xmlns="http://www.w3.org/2000/svg" viewBox="0 0 32 32" fill="none">
        <path fill="#EB2F3B" d="M0 4a4 4 0 0 1 4-4h24a4 4 0 0 1 4 4v24a4 4 0 0 1-4 4H4a4 4 0 0 1-4-4V4z"></path>
        <path fill="#CE1E29" d="M0 26h32v2a4 4 0 0 1-4 4H4a4 4 0 0 1-4-4v-2z"></path>
        <path fill="#FF4F5A" d="M28 0a4 4 0 0 1 4 4v24a4 4 0 0 1-4 4h-2V0h2z"></path>
        <path fill="#EB2F3B" d="M26 32h2a4 4 0 0 0 4-4v-2h-6v6z"></path>
        <path fill="#fff" fill-rule="evenodd"
            d="M12.003 6h4.499a4.5 4.5 0 1 1 0 9h-2.5v6H10a4 4 0 1 1 0-8h2.001l.002-7zM12 15H10a2 2 0 0 0 0 4h2.002v-4zm2-2h2.5a2.5 2.5 0 1 0 0-5h-2.499l-.001 5z"
            clip-rule="evenodd"></path>
    </svg>