<svg xmlns="http://www.w3.org/2000/svg" viewBox="0 0 32 32" fill="none">
        <path fill="#1D70F5" d="M0 4a4 4 0 0 1 4-4h24a4 4 0 0 1 4 4v24a4 4 0 0 1-4 4H4a4 4 0 0 1-4-4V4z"></path>
        <path fill="#0059E8" d="M0 24.5h32V28a4 4 0 0 1-4 4H4a4 4 0 0 1-4-4v-3.5z"></path>
        <path fill="#3C87FF"
            d="M28 0a4 4 0 0 1 4 4v24.129A3.871 3.871 0 0 1 28.129 32a3.63 3.63 0 0 1-3.629-3.629V0H28z"></path>
        <path fill="#1D70F5"
            d="M24.5 28.371A3.63 3.63 0 0 0 28.129 32 3.871 3.871 0 0 0 32 28.129a3.63 3.63 0 0 0-3.629-3.629H24.5v3.871z">
        </path>
        <path fill="#fff"
            d="M7.679 17.875L4.75 6.125H7.1l2.092 9.332 1.95-8.858h2.113l2.158 8.93 1.868-9.404h2.344l-2.663 11.75h-2.943l-1.766-7.12-1.655 7.12h-2.92z">
        </path>
    </svg>