<svg xmlns="http://www.w3.org/2000/svg" viewBox="0 0 16 16" fill="none">
        <g fill="none" fill-rule="evenodd">
            <path d="M0 0h16v16H0z"></path>
            <path fill="#B7BFD0"
                d="M13.846 4.087l-3-2.933a.547.547 0 0 0-.758 0l-8.173 7.98a.476.476 0 0 0-.16.274l-.729 3.624a.468.468 0 0 0 .14.43.491.491 0 0 0 .44.137l3.747-.632c.113-.01.22-.06.3-.14l8.193-8c.1-.096.159-.23.16-.369a.483.483 0 0 0-.16-.368v-.003zm-8.783 7.944l-2.928.493.57-2.785 5.756-5.62 2.348 2.3-5.746 5.612zm6.455-6.3l-2.358-2.3 1.309-1.27 2.347 2.3-1.298 1.27zm0 0l1.568 9.267H1.516a.487.487 0 1 1 0-.973h11.57a.491.491 0 0 1 .5.487.5.5 0 0 1-.5.486L11.518 5.73z">
            </path>
        </g>
    </svg>