<svg xmlns="http://www.w3.org/2000/svg" viewBox="0 0 16 16" fill="none">
        <path fill="currentColor" fill-rule="evenodd"
            d="M13.5 1h-10a.5.5 0 0 0-.5.5v11a.5.5 0 0 0 .5.5h10a.5.5 0 0 0 .5-.5v-11a.5.5 0 0 0-.5-.5zm-10-1A1.5 1.5 0 0 0 2 1.5v11A1.5 1.5 0 0 0 3.5 14h10a1.5 1.5 0 0 0 1.5-1.5v-11A1.5 1.5 0 0 0 13.5 0h-10zM7 4.5a1.5 1.5 0 1 0 3 0 1.5 1.5 0 0 0-3 0zM8.5 2a2.5 2.5 0 0 0 0 5C6.143 7 4.884 8.219 4.338 8.954 4.085 9.295 4 9.72 4 10.144V11a1 1 0 0 0 1 1h7a1 1 0 0 0 1-1v-.856c0-.425-.085-.849-.338-1.19C12.116 8.22 10.857 7 8.5 7a2.5 2.5 0 0 0 0-5zm3.5 8.144V11H5v-.856c0-.306.064-.489.141-.594C5.558 8.988 6.548 8 8.5 8c1.951 0 2.942.988 3.359 1.55.077.105.141.288.141.594z"
            clip-rule="evenodd"></path>
    </svg>