<svg xmlns="http://www.w3.org/2000/svg" viewBox="0 0 48 48" fill="none">
        <g fill="none" fill-rule="evenodd">
            <path d="M0 0h48v48H0z"></path>
            <path fill="#36425A" fill-rule="nonzero"
                d="M23.118 11.602v-1.548h-2.124V7.642h1.872V6.094h-1.872V4.546h-1.728v1.548h-2.61V4.546H14.91v1.548h-1.872v1.548h1.872v2.412h-2.214v1.548h10.422zM9.852 20.854a7.009 7.009 0 0 0 .558-2.025 20.6 20.6 0 0 0 .126-2.421v-1.89l1.782-.396v-1.854l-1.782.396V8.83h1.782V7.138h-1.782V4.546H8.7v2.592H6.882V8.83H8.7v4.248l-1.818.396v1.836l1.818-.396v1.494c0 .96-.099 1.785-.297 2.475a9.299 9.299 0 0 1-.819 1.971h2.268zm9.414-10.8h-2.61V7.642h2.61v2.412zm3.15 10.782v-8.028H13.38v8.028h9.036zm-1.764-4.716h-5.49v-1.8h5.49v1.8zm0 3.222h-5.49V17.56h5.49v1.782zm20.322-11.79V5.968H37.59a10.35 10.35 0 0 0-.414-1.422H35.16c.084.216.165.444.243.684.078.24.147.486.207.738h-3.24v1.584h8.604zm-9.216 13.284v-7.632H29.4v-2.448h2.592v-1.62H29.4V6.688l2.412-.162V4.888l-6.786.45v1.638l2.556-.162v2.322h-2.754v1.62h2.754v2.448h-2.43v7.632h6.606zm5.904.018v-3.69h3.078V15.58h-3.078v-2.268h3.492V11.71h-2.088a22.67 22.67 0 0 0 .612-1.8c.18-.612.348-1.212.504-1.8H38.4c-.036.204-.09.45-.162.738-.072.288-.156.594-.252.918-.096.324-.195.654-.297.99a19.8 19.8 0 0 1-.315.954h-5.166v1.602H35.7v2.268h-3.078v1.584H35.7v3.69h1.962zm-1.8-9.54a43.192 43.192 0 0 0-.333-1.611 23.394 23.394 0 0 0-.387-1.503H33.36c.072.228.141.477.207.747a167.844 167.844 0 0 1 .387 1.629c.06.264.108.51.144.738h1.764zm-5.796 7.866h-3.222v-4.32h3.222v4.32zM14.01 31.514a21.072 21.072 0 0 0 1.737-1.944 28.873 28.873 0 0 0 1.683-2.358c.528.792 1.08 1.563 1.656 2.313.576.75 1.116 1.413 1.62 1.989h2.592L22.2 30.263a44.957 44.957 0 0 1-1.116-1.323c-.36-.444-.699-.87-1.017-1.278a15.33 15.33 0 0 1-.801-1.116H15.54a26.548 26.548 0 0 1-1.737 2.367 35.73 35.73 0 0 1-2.331 2.601h2.538zm-3.276-1.944a34.666 34.666 0 0 0-.441-1.629 21.302 21.302 0 0 0-.459-1.395h-1.98c.156.42.306.9.45 1.44.144.54.264 1.068.36 1.584h2.07zm1.115 13.284l.001-1.728h-1.404V30.254H6.792v1.656h1.62v10.944h3.437zm3.763-8.118a28.505 28.505 0 0 0 2.223-1.476c.738-.54 1.539-1.17 2.403-1.89H17.34a37.066 37.066 0 0 1-2.214 1.62 39.043 39.043 0 0 1-2.844 1.746h3.33zm.288 3.6a32.47 32.47 0 0 0 3.015-1.791 67.745 67.745 0 0 0 3.141-2.223H19.05a38.773 38.773 0 0 1-2.97 1.962 46.39 46.39 0 0 1-3.816 2.052H15.9zm-4.05 4.518h3.816a25.77 25.77 0 0 0 1.755-.972 46.404 46.404 0 0 0 5.697-4.068h-3.204c-.48.384-1.02.786-1.62 1.206-.6.42-1.245.846-1.935 1.278-.69.432-1.416.864-2.178 1.296-.762.432-1.539.852-2.331 1.26zm21.636 0v-1.656h-6.66V26.546h-1.638v16.308h8.298zm-2.304-2.088v-7.938h2.358V31.37h-2.358v-4.824h-1.494v4.824h-2.304v1.458h2.304v7.938h1.494zm4.32 2.088c.204-1.056.342-2.286.414-3.69.072-1.404.108-2.91.108-4.518V33.08h2.088v9.774h1.728V33.08h1.332v-1.638h-5.148v-2.646l4.878-.36v-1.728l-6.606.504v7.452c0 1.536-.039 3-.117 4.392-.078 1.392-.255 2.658-.531 3.798h1.854zM29.22 30.668a55.13 55.13 0 0 0-.18-1.98 31.046 31.046 0 0 0-.252-1.836h-1.314c.096.624.18 1.248.252 1.872.072.624.132 1.272.18 1.944h1.314zm3.78 0c.084-.612.162-1.239.234-1.881.072-.642.12-1.281.144-1.917h-1.296a27.198 27.198 0 0 1-.144 1.863c-.072.654-.15 1.299-.234 1.935H33zm-4.248 10.098l.153-1.755c.054-.63.102-1.269.144-1.917a70.82 70.82 0 0 0 .099-1.935c.024-.642.042-1.239.054-1.791H27.87a42.562 42.562 0 0 1-.081 1.746c-.042.648-.09 1.311-.144 1.989a82.783 82.783 0 0 1-.18 1.971 41.16 41.16 0 0 1-.207 1.692h1.494zm4.806 0c-.06-.444-.117-.987-.171-1.629a138.697 138.697 0 0 1-.279-4.032c-.036-.666-.066-1.245-.09-1.737H31.74c.012.528.033 1.125.063 1.791.03.666.063 1.341.099 2.025.036.684.078 1.341.126 1.971.048.63.09 1.167.126 1.611h1.404z">
            </path>
        </g>
    </svg>