<svg xmlns="http://www.w3.org/2000/svg" viewBox="0 0 16 16" fill="none">
        <g fill="none" fill-rule="evenodd">
            <path d="M0 0h16v16H0z"></path>
            <path fill="currentColor"
                d="M11.835 1.002c.302 0 .584.116.798.329l2 1.995c.213.21.332.496.33.795 0 .3-.117.582-.33.794l-3.077 3.068 3.087 3.077a1.217 1.217 0 0 1 0 1.723l-1.868 1.862c-.229.23-.54.357-.863.357-.324 0-.635-.128-.864-.357l-3.086-3.078-2.212 2.207a1.124 1.124 0 0 1-.608.313l-2.365.401a1.123 1.123 0 0 1-1.302-1.279l.368-2.4a1.12 1.12 0 0 1 .316-.625l2.207-2.201-3.009-3a1.217 1.217 0 0 1 0-1.723l1.868-1.862a1.225 1.225 0 0 1 1.727 0l3.009 3 1.625-1.622a.406.406 0 0 1 .037-.044l.062-.053 1.353-1.348c.211-.212.498-.33.797-.33zm-.849 7.55l-2.455 2.447.751.749 1.428-1.423a.404.404 0 0 1 .675.18.401.401 0 0 1-.105.389l-1.428 1.422.5.498 1.427-1.423a.404.404 0 0 1 .678.168.401.401 0 0 1-.098.39c-.003.005-.006.007-.01.01l-1.427 1.424.696.694c.156.156.43.156.586 0l1.868-1.863a.413.413 0 0 0 0-.585l-3.086-3.077zm-8.414 2.815l-.3 1.965a.314.314 0 0 0 .073.255.317.317 0 0 0 .297.108l1.936-.328-2.006-2zm7.346-7.781L2.913 10.57l2.455 2.448 2.27-2.266a.403.403 0 0 1 .075-.074l4.658-4.645-2.453-2.447zm-6.123-1.62L1.928 3.828a.41.41 0 0 0 0 .585l.683.682 1.427-1.423a.404.404 0 0 1 .683.166c.04.14 0 .29-.103.393l-.01.01-1.427 1.423.499.497 1.427-1.423a.404.404 0 0 1 .57-.01c.16.155.165.41.01.569l-.01.01L4.25 6.73l.687.684L7.39 4.968 4.382 1.966a.417.417 0 0 0-.587 0zm8.04-.16a.319.319 0 0 0-.226.094l-1.121 1.117 2.454 2.447 1.121-1.118a.317.317 0 0 0 0-.45L12.062 1.9a.317.317 0 0 0-.227-.094z">
            </path>
        </g>
    </svg>