<svg xmlns="http://www.w3.org/2000/svg" viewBox="0 0 16 16" fill="none">
        <g fill="none" fill-rule="evenodd">
            <path d="M0 0h16v16H0z"></path>
            <path fill="#8B97AF"
                d="M13.803 8.352l-1.7 1.701a.188.188 0 0 1-.266 0l-.265-.265a.188.188 0 0 1 0-.265l1.148-1.148H8.375v4.345l1.148-1.148a.188.188 0 0 1 .265 0l.265.265a.188.188 0 0 1 0 .265l-1.7 1.701C8.348 13.796 8.144 14 8 14c-.146 0-.337-.205-.352-.197l-1.701-1.7a.188.188 0 0 1 0-.266l.265-.265a.188.188 0 0 1 .265 0l1.148 1.148V8.375H3.28l1.148 1.148a.188.188 0 0 1 0 .265l-.265.265a.188.188 0 0 1-.266 0l-1.7-1.7C2.204 8.348 2 8.144 2 8c0-.146.205-.337.197-.352l1.7-1.701a.188.188 0 0 1 .266 0l.265.265a.188.188 0 0 1 0 .265L3.28 7.625h4.345V3.28L6.477 4.428a.188.188 0 0 1-.265 0l-.266-.265a.188.188 0 0 1 0-.266l1.701-1.7C7.651 2.204 7.854 2 8 2c.145 0 .337.205.352.197l1.701 1.7a.188.188 0 0 1 0 .266l-.265.265a.188.188 0 0 1-.266 0L8.375 3.28v4.345h4.345l-1.148-1.148a.188.188 0 0 1 0-.265l.265-.266a.188.188 0 0 1 .265 0l1.701 1.701c-.008.004.197.207.197.353 0 .145-.205.337-.197.352z">
            </path>
        </g>
    </svg>