<svg xmlns="http://www.w3.org/2000/svg" viewBox="0 0 16 16" fill="none">
        <path fill="#9D31B6" fill-rule="evenodd"
            d="M8.75.5a.5.5 0 0 0-1 0v1.75a.5.5 0 0 0 1 0V.5zm-.348 4.165a1 1 0 0 1 1.4.012l1.145 1.144a1 1 0 0 1 .012 1.402l-7.048 7.304a1 1 0 0 1-1.427.012l-1.402-1.401a1 1 0 0 1 .013-1.427l7.307-7.046zm.694.72l-1.784 1.72 1.207 1.207 1.72-1.784-1.143-1.144zM1.79 12.43l4.802-4.632 1.232 1.232-4.633 4.801-1.401-1.401zM13.59 1.909a.5.5 0 0 1 0 .707l-1.237 1.238a.5.5 0 0 1-.708-.708l1.238-1.237a.5.5 0 0 1 .707 0zm-1.237 8.75a.5.5 0 0 0-.708.707l1.238 1.238a.5.5 0 0 0 .707-.707l-1.237-1.238zm-9.458-8.75a.5.5 0 0 1 .708 0L4.84 3.146a.5.5 0 1 1-.707.708L2.896 2.616a.5.5 0 0 1 0-.707zM13.25 6.75a.5.5 0 0 0 0 1H15a.5.5 0 0 0 0-1h-1.75z"
            clip-rule="evenodd"></path>
    </svg>