<svg xmlns="http://www.w3.org/2000/svg" viewBox="0 0 16 16" fill="none">
        <path stroke="#417FF9" stroke-linecap="round" stroke-linejoin="round" stroke-width=".8"
            d="M6.717 1.118A7.004 7.004 0 0 0 1 8a7 7 0 0 0 8.283 6.882 4.67 4.67 0 0 1-3.616-4.549V5.667a2.333 2.333 0 1 1 4.666 0M9.283 14.882a7.004 7.004 0 0 0 5.705-7.303">
        </path>
        <path stroke="#417FF9" stroke-linecap="round" stroke-linejoin="round" stroke-width=".8"
            d="M10.333 7.517v2.816a2.333 2.333 0 1 1-4.666 0"></path>
        <path stroke="#417FF9" stroke-linecap="round" stroke-linejoin="round" stroke-width=".8"
            d="M8 1c-.439 0-.868.04-1.283.118a4.67 4.67 0 0 1 3.616 4.549v1.85c0 .31.123.606.342.825l1.58 1.579a.583.583 0 0 0 .824 0l1.56-1.56c.243-.243.366-.581.339-.924A7 7 0 0 0 8 1z"
            clip-rule="evenodd"></path>
    </svg>