<svg xmlns="http://www.w3.org/2000/svg" viewBox="0 0 16 16" fill="none">
        <g fill="none" fill-rule="evenodd">
            <path d="M0 0h16v16H0z"></path>
            <path fill="#417FF9"
                d="M11.498 9.641a.5.5 0 0 1 .707.011 2.21 2.21 0 0 1 0 3.077l-1.414 1.458-.146.132c-.839.69-2.08.632-2.85-.161a2.21 2.21 0 0 1 0-3.077l.23-.239.069-.058a.5.5 0 0 1 .65.754l-.231.239-.09.104a1.21 1.21 0 0 0 .09 1.58c.425.44 1.126.45 1.565.025l1.41-1.453.09-.105a1.21 1.21 0 0 0-.09-1.58l-.058-.07a.5.5 0 0 1 .068-.637zM12.2 1a.8.8 0 0 1 .794.7l.006.1v3.7a.5.5 0 0 1-.992.09L12 5.5V2H3v11h2.5a.5.5 0 0 1 .492.41L6 13.5a.5.5 0 0 1-.41.492L5.5 14H2.8a.8.8 0 0 1-.794-.7L2 13.2V1.8a.8.8 0 0 1 .7-.794L2.8 1h9.4zm-.845 6.68a2.107 2.107 0 0 1 2.85.162 2.21 2.21 0 0 1 0 3.077l-.23.239-.069.058a.5.5 0 0 1-.65-.754l.231-.239.09-.104a1.21 1.21 0 0 0-.09-1.58 1.107 1.107 0 0 0-1.565-.025l-1.41 1.453-.09.105a1.21 1.21 0 0 0 .09 1.58l.058.07a.5.5 0 0 1-.775.626 2.21 2.21 0 0 1 0-3.077l1.414-1.458zM7.5 8a.5.5 0 0 1 .09.992L7.5 9h-3a.5.5 0 0 1-.09-.992L4.5 8h3zm0-2a.5.5 0 0 1 .09.992L7.5 7h-3a.5.5 0 0 1-.09-.992L4.5 6h3zm3-2a.5.5 0 0 1 .09.992L10.5 5h-6a.5.5 0 0 1-.09-.992L4.5 4h6z">
            </path>
        </g>
    </svg>