<svg xmlns="http://www.w3.org/2000/svg" viewBox="0 0 16 16" fill="none">
        <path fill="currentColor" fill-rule="evenodd"
            d="M7.252.162C6.629-.283 5.827.234 5.887.95l.302 3.582-2.844 2.165c-.581.443-.4 1.39.335 1.554l1.112.249-3.438 3.438a1.5 1.5 0 0 0 0 2.122l.585.585a1.5 1.5 0 0 0 2.122 0l3.682-3.682.473 1.436c.232.706 1.185.822 1.568.173l1.83-3.1 3.535-.07c.757-.016 1.107-.907.637-1.451l-2.31-2.68 1.066-3.427c.214-.688-.466-1.377-1.175-1.064l-3.244 1.43L7.252.162zM7.393 9.9l-.29-.882-1.156-.258-3.886 3.886a.5.5 0 0 0 0 .707l.586.586a.5.5 0 0 0 .707 0L7.393 9.9zm-.185-5.177l-.301-3.579 2.867 2.047a.5.5 0 0 0 .492.05l3.239-1.428-1.066 3.427a.5.5 0 0 0 .098.475l2.322 2.693-3.544.07a.5.5 0 0 0-.42.246l-1.821 3.084-1.11-3.372a.5.5 0 0 0-.366-.331l-3.438-.77 2.853-2.173a.5.5 0 0 0 .195-.44z"
            clip-rule="evenodd"></path>
    </svg>