<svg xmlns="http://www.w3.org/2000/svg" viewBox="0 0 16 16" fill="none">
        <path fill="currentColor" fill-rule="evenodd"
            d="M12.5 1h-10a.5.5 0 0 0-.5.5v11a.5.5 0 0 0 .5.5H6v1H2.5A1.5 1.5 0 0 1 1 12.5v-11A1.5 1.5 0 0 1 2.5 0h10A1.5 1.5 0 0 1 14 1.5V6h-1V1.5a.5.5 0 0 0-.5-.5zm-8 2a.5.5 0 0 0 0 1h6a.5.5 0 0 0 0-1h-6zm6.75 4.334l1.087 2.08 2.344.382-1.67 1.673.357 2.32-2.118-1.053-2.118 1.052.357-2.319-1.67-1.673 2.344-.381 1.087-2.08zM7.086 8.918l2.419-.394 1.123-2.15a.704.704 0 0 1 1.244 0l1.123 2.15 2.419.394c.56.09.782.765.384 1.163l-1.724 1.728.369 2.397c.085.553-.5.97-1.006.719l-2.187-1.086-2.187 1.086c-.507.252-1.09-.166-1.006-.72l.37-2.396-1.725-1.728a.687.687 0 0 1 .384-1.163zM4 6.5a.5.5 0 0 1 .5-.5H8a.5.5 0 0 1 0 1H4.5a.5.5 0 0 1-.5-.5z"
            clip-rule="evenodd"></path>
    </svg>