<svg xmlns="http://www.w3.org/2000/svg" viewBox="0 0 16 16" fill="none">
        <g fill="currentColor" fill-rule="nonzero">
            <path
                d="M10.293 2H3.5a.5.5 0 0 0-.5.5V6a.5.5 0 0 1-1 0V2.5A1.5 1.5 0 0 1 3.5 1h7.207L14 4.293V13.5a1.5 1.5 0 0 1-1.5 1.5h-9a.5.5 0 1 1 0-1h9a.5.5 0 0 0 .5-.5V4.707L10.293 2z">
            </path>
            <path
                d="M6.45 6.646l2.543 2.542a.5.5 0 0 1 0 .707L6.45 12.437a.5.5 0 1 1-.707-.707L7.473 10H1.5a.5.5 0 0 1 0-1h5.891L5.744 7.354a.5.5 0 0 1 .707-.708z">
            </path>
        </g>
    </svg>