<svg xmlns="http://www.w3.org/2000/svg" viewBox="0 0 16 16" fill="none">
        <g fill="#8B95A8" fill-rule="evenodd">
            <path
                d="M12.62 1.505c.72 0 1.311.552 1.378 1.258l.007.134V4.29a.462.462 0 1 1-.916.083l-.008-.083V2.897a.464.464 0 0 0-.378-.456l-.083-.008H3.39a.462.462 0 0 0-.455.381l-.007.083v10.215c0 .228.163.417.378.457l.083.007h9.23a.462.462 0 0 0 .455-.38l.007-.084v-1.393a.462.462 0 1 1 .916-.083l.008.083v1.393a1.39 1.39 0 0 1-1.252 1.386l-.133.007H3.39c-.72 0-1.312-.553-1.38-1.26l-.005-.133V2.897c0-.724.549-1.319 1.25-1.386l.134-.006h9.23z">
            </path>
            <path d="M7.505 7.56h6.5v1h-6.5a.5.5 0 0 1 0-1z"></path>
            <path
                d="M11.12 5a.5.5 0 0 1 .637-.058l.07.058 3 3a.5.5 0 0 1 .057.638l-.058.07-3 3a.5.5 0 0 1-.765-.639L11.12 11l2.647-2.646-2.647-2.647a.5.5 0 0 1-.058-.638L11.12 5z">
            </path>
        </g>
    </svg>