<svg xmlns="http://www.w3.org/2000/svg" viewBox="0 0 16 16" fill="none">
        <g fill="none" fill-rule="nonzero">
            <path fill="#979797"
                d="M6 13v1h3v-1H6zm0-1h3a1 1 0 0 1 1 1v1a1 1 0 0 1-1 1H6a1 1 0 0 1-1-1v-1a1 1 0 0 1 1-1z"></path>
            <path fill="#979797"
                d="M6 12h3v-1.212l.545-.278a4.5 4.5 0 1 0-4.09 0l.545.278V12zm4 1H5v-1.6a5.5 5.5 0 1 1 5 0V13z"></path>
            <path fill="#D8D8D8" d="M9.5 7a.5.5 0 0 1 0 1H8v4H7V8H5.5a.5.5 0 0 1 0-1h4z"></path>
        </g>
    </svg>