<svg xmlns="http://www.w3.org/2000/svg" viewBox="0 0 48 48" fill="none">
        <g fill="none" fill-rule="nonzero">
            <path d="M0 0h48v48H0z"></path>
            <path fill="#36425A" fill-opacity=".1"
                d="M24 3c11.598 0 21 9.402 21 21s-9.402 21-21 21S3 35.598 3 24 12.402 3 24 3zm0 6C15.716 9 9 15.716 9 24c0 8.284 6.716 15 15 15 8.284 0 15-6.716 15-15 0-8.284-6.716-15-15-15z">
            </path>
            <path fill="#417FF9"
                d="M36.256 41.055a3 3 0 0 1-3.505-4.87A14.974 14.974 0 0 0 39 24c0-8.284-6.716-15-15-15a3 3 0 0 1 0-6c11.598 0 21 9.402 21 21 0 6.84-3.298 13.135-8.744 17.055z">
            </path>
        </g>
    </svg>