<svg xmlns="http://www.w3.org/2000/svg" viewBox="0 0 24 24" fill="none">
        <g fill="none" fill-rule="evenodd">
            <rect width="24" height="24" rx="2"></rect>
            <g transform="translate(2 2)">
                <rect width="20" height="20" fill="#2C69F9" fill-rule="nonzero" rx="1"></rect>
                <path fill="#FFF" fill-rule="nonzero" d="M12 2h5v6h-5z"></path>
                <path fill="#2C69F9"
                    d="M15.448 6.36c-.5.664-1.172.776-1.172.776s.02-.767.606-1.427 1.144-.827 1.144-.827-.078.816-.578 1.479m-1.428.775s-.564-.782-.613-1.476c-.067-.943.499-1.772.499-1.772-.034 1.294.32 1.872.32 1.872s.09.148.03.594c-.059.441-.236.782-.236.782m.1-2.91c.064-.837.51-1.465.51-1.465s.433.6.346 1.563c-.086.94-.524 1.486-.524 1.486s-.397-.746-.332-1.583">
                </path>
                <path fill="#FFF"
                    d="M6.52 7.728c-.845 0-1.334-.32-1.334-1.468s.489-1.468 1.334-1.468c.841 0 1.33.32 1.33 1.468S7.36 7.728 6.52 7.728zm0-.577c.448 0 .584-.204.584-.89 0-.688-.146-.903-.584-.903-.448 0-.584.215-.584.902s.146.891.584.891zm3.398-2.359c.88 0 1.082.572 1.082 1.468 0 .813-.201 1.468-1.082 1.468-.519 0-.73-.178-.836-.45l-.05.398h-.665V3.69h.73v1.494c.106-.21.342-.393.82-.393zM4.657 3v3.505c0 .87-.465 1.295-1.244 1.295-.126 0-.293-.01-.413-.027V7.12c.105.016.22.027.34.027.407 0 .528-.256.528-.68V3h.789zm5.029 2.358c.493 0 .569.383.569.902 0 .488-.066.891-.569.891-.498 0-.63-.346-.63-.89 0-.572.132-.903.63-.903z">
                </path>
                <path fill="#FFF" fill-rule="nonzero" d="M3 10h14v1H3zM3 13h14v1H3zM3 16h14v1H3z"></path>
            </g>
        </g>
    </svg>