<svg xmlns="http://www.w3.org/2000/svg" viewBox="0 0 23 23" fill="none">
        <g fill="none" fill-rule="evenodd">
            <rect width="22" height="22" x=".5" y=".5" fill="#FFF" stroke="#2C69F9" rx="2"></rect>
            <path fill="#4178F9" fill-rule="nonzero"
                d="M18.754 11.94l-2.126 2.126a.235.235 0 0 1-.332 0l-.332-.331a.235.235 0 0 1 0-.332L17.4 11.97h-5.431V17.4l1.435-1.435a.235.235 0 0 1 .331 0l.332.332a.235.235 0 0 1 0 .331l-2.126 2.126c-.005-.01-.26.246-.441.246-.182 0-.42-.256-.44-.246l-2.126-2.126a.235.235 0 0 1 0-.332l.331-.332a.235.235 0 0 1 .332 0L11.03 17.4v-5.431h-5.43l1.434 1.435a.235.235 0 0 1 0 .331l-.332.332a.235.235 0 0 1-.331 0L4.246 11.94c.01-.005-.246-.26-.246-.441 0-.182.256-.42.246-.44l2.126-2.126a.235.235 0 0 1 .332 0l.332.331a.235.235 0 0 1 0 .332L5.6 11.03h5.431v-5.43L9.596 7.034a.235.235 0 0 1-.331 0l-.332-.332a.235.235 0 0 1 0-.331l2.126-2.126c.005.01.26-.246.441-.246.182 0 .42.256.44.246l2.126 2.126a.235.235 0 0 1 0 .332l-.331.332a.235.235 0 0 1-.332 0L11.97 5.6v5.431h5.43l-1.434-1.435a.235.235 0 0 1 0-.331l.332-.332a.235.235 0 0 1 .331 0l2.126 2.126c-.01.005.246.26.246.441 0 .182-.256.42-.246.44z">
            </path>
        </g>
    </svg>