<svg xmlns="http://www.w3.org/2000/svg" viewBox="0 0 16 16" fill="none">
        <g fill="none" fill-rule="evenodd">
            <path fill="currentColor" fill-rule="nonzero"
                d="M10.5 6h-5c-.3 0-.5-.2-.5-.5s.2-.5.5-.5h5c.3 0 .5.2.5.5s-.2.5-.5.5zm0 2h-5c-.3 0-.5-.2-.5-.5s.2-.5.5-.5h5c.3 0 .5.2.5.5s-.2.5-.5.5zm0 2h-5c-.3 0-.5-.2-.5-.5s.2-.5.5-.5h5c.3 0 .5.2.5.5s-.2.5-.5.5zm-5 1h2c.3 0 .5.2.5.5s-.2.5-.5.5h-2c-.3 0-.5-.2-.5-.5s.2-.5.5-.5z"
                opacity=".4"></path>
            <path fill="currentColor" fill-rule="nonzero"
                d="M11.7 1L14 3.3v10.1c0 .9-.7 1.6-1.6 1.6H3.6c-.9 0-1.6-.7-1.6-1.6V2.6C2 1.7 2.7 1 3.6 1h8.1zM3 2.6v10.8c0 .3.25.6.5.6h9c.25 0 .5-.3.5-.6V4h-1c-.5 0-1-.5-1-1V2H3.5c-.25 0-.5.3-.5.6z">
            </path>
        </g>
    </svg>