<svg xmlns="http://www.w3.org/2000/svg" viewBox="0 0 22 15" fill="none">
        <g fill="none" fill-rule="nonzero">
            <path fill="#FFE2DF" d="M0 2a2 2 0 0 1 2-2h18a2 2 0 0 1 2 2v8a2 2 0 0 1-2 2H3.017L0 14.206V2z"></path>
            <path fill="#FF4E37"
                d="M3.848 9V6.624c0-.68-.088-1.424-.144-2.064h.04l.6 1.272L6.056 9h1.2V3.08h-1.12v2.36c0 .672.088 1.456.152 2.072h-.04l-.592-1.28-1.72-3.152H2.728V9h1.12zm8.592 0v-.992H9.904V6.424h2.08v-.992h-2.08V4.064h2.448V3.08H8.72V9h3.72zm3.208 0l.648-2.928c.096-.464.176-.92.256-1.368h.032c.072.448.16.904.256 1.368L17.504 9h1.472l1.096-5.92h-1.128l-.464 2.888c-.088.616-.176 1.248-.264 1.888h-.04c-.128-.64-.248-1.28-.376-1.888l-.688-2.888h-1.008l-.688 2.888c-.128.616-.256 1.256-.376 1.888h-.032c-.088-.632-.184-1.264-.272-1.888l-.472-2.888h-1.208L14.2 9h1.448z">
            </path>
        </g>
    </svg>