<svg xmlns="http://www.w3.org/2000/svg" viewBox="0 0 40 20" fill="none">
        <rect width="40" height="20" fill="#F4EFFD" rx="10"></rect>
        <path fill="#682AEF"
            d="M8.34 5.432h1.404l4.236 6.18h.048v-6.18h1.416V14h-1.368L9.792 7.736h-.048V14H8.34V5.432zm11.31 2.196c1.02 0 1.8.336 2.34 1.032.491.624.743 1.5.743 2.616H18.09c.048.576.204 1.02.468 1.32.264.3.648.456 1.14.456.42 0 .756-.096 1.02-.288.204-.156.384-.408.552-.756h1.368a2.817 2.817 0 0 1-.864 1.452c-.552.468-1.236.708-2.064.708-.924 0-1.656-.288-2.196-.852-.576-.588-.864-1.392-.864-2.424 0-.924.264-1.692.816-2.316.528-.636 1.26-.948 2.184-.948zm.035 1.116c-.456 0-.804.12-1.068.384-.252.252-.42.624-.504 1.116h3.192c-.12-1.008-.66-1.5-1.62-1.5zm3.473-.948h1.512l1.236 4.584 1.224-4.584h1.26l1.224 4.584 1.236-4.584h1.512L30.274 14h-1.272l-1.236-4.536L26.518 14h-1.272l-2.088-6.204z">
        </path>
    </svg>