<svg xmlns="http://www.w3.org/2000/svg" viewBox="0 0 90 120" fill="none">
        <defs>
            <path id="svg-photo-upload_a" d="M0 0h90v120H0z"></path>
        </defs>
        <g fill="none" fill-rule="evenodd">
            <mask id="svg-photo-upload_b" fill="#fff">
                <use xlink:href="#svg-photo-upload_a"></use>
            </mask>
            <use fill="#F1F3F5" xlink:href="#svg-photo-upload_a"></use>
            <g fill="#DFE1E3" fill-rule="nonzero" mask="url(#svg-photo-upload_b)">
                <path
                    d="M70.02 76.691l-13.256-5.16s-2.528-.98-3.51-1.945c-.631-.62-.586-2.082-.027-3.95.559-1.867 7.354-9.458 7.354-16.353C60.581 38.634 53.573 30 44.93 30c-8.644 0-15.652 8.634-15.652 19.283 0 6.605 6.056 14.478 6.803 15.909.748 1.43.566 3.612-.025 4.272-.886.993-4.125 1.988-4.125 1.988l-11.95 5.32c-2.792 1.002-4.98 3.632-4.98 6.6v1.407C15 88.02 17.633 90 20.87 90H69.13c3.237 0 5.87-1.982 5.87-5.22v-1.408c0-2.968-2.188-5.68-4.98-6.68z">
                </path>
            </g>
        </g>
    </svg>