<svg xmlns="http://www.w3.org/2000/svg" viewBox="0 0 16 16" fill="none">
        <path fill="#2C69F9" fill-rule="nonzero"
            d="M8.5 13a5.5 5.5 0 1 1 0-11 5.5 5.5 0 0 1 0 11zm0-10.312a4.812 4.812 0 1 0 0 9.625 4.812 4.812 0 0 0 0-9.625zm.849 5.544a1.213 1.213 0 0 0-.682 1.078.309.309 0 0 1-.337.339.699.699 0 0 0-.202.014.312.312 0 0 1-.31-.353c.024-.682.407-1.3 1.007-1.625.614-.415.998-.81.998-1.466 0-.728-.19-1.454-1.373-1.458h.007-.017.01a1.264 1.264 0 0 0-1.224 1.374v.184a.395.395 0 0 1-.35.417c-.187 0 .004-.001-.157-.001-.24 0-.315-.218-.315-.416v-.184a1.908 1.908 0 0 1 2.023-2.072h.03a1.928 1.928 0 0 1 2.105 2.128A2.35 2.35 0 0 1 9.35 8.232zm-1.295 2.373h.36a.353.353 0 0 1 .311.31v.39a.31.31 0 0 1-.31.311h-.36a.31.31 0 0 1-.312-.31v-.39a.321.321 0 0 1 .311-.311z">
        </path>
    </svg>