<svg xmlns="http://www.w3.org/2000/svg" viewBox="0 0 20 20" fill="none">
        <path fill="currentColor" fill-rule="nonzero"
            d="M1.154 10.349l2.095 2.118c.02.028.013.065.037.09a.53.53 0 0 0 .753 0l2.175-2.199a.543.543 0 0 0-.239-.9.529.529 0 0 0-.514.139l-1.177 1.19A5.072 5.072 0 0 1 4.218 10c0-3.271 2.623-5.923 5.858-5.923 3.236 0 5.859 2.652 5.859 5.923s-2.623 5.923-5.859 5.923a5.748 5.748 0 0 1-2.857-.782l-.008.011a.515.515 0 0 0-.297-.104.53.53 0 1 0-.282.983l-.004.006c.014.008.03.014.043.022.018.01.037.02.056.028a6.767 6.767 0 0 0 3.35.913C13.9 17 17 13.866 17 10s-3.1-7-6.924-7c-3.824 0-6.924 3.134-6.924 7 .003.315.029.63.078.94L1.9 9.595a.523.523 0 0 0-.882.24.537.537 0 0 0 .136.514z">
        </path>
    </svg>