<svg xmlns="http://www.w3.org/2000/svg" viewBox="0 0 16 16" fill="none">
        <g fill="none" fill-rule="evenodd">
            <path d="M0 0h16v16H0z"></path>
            <path fill="#FF4800"
                d="M13.999 10.559c-.002.05.001.101.001.152 0 .598-.319 1.118-.787 1.379l-4.294 2.59a1.56 1.56 0 0 1-.919.319c-.335 0-.643-.12-.891-.319l-4.162-2.494A1.613 1.613 0 0 1 2 10.709l.002-.052V5.342L2 5.29l.002-.052v-.135a1.585 1.585 0 0 1 .85-1.225l4.23-2.561A1.57 1.57 0 0 1 8 1.001c.333 0 .639.118.886.316l4.339 2.597.143.086a1.61 1.61 0 0 1 .609 1.548l.022 5.011z">
            </path>
            <path fill="#FFF"
                d="M6.326 5.742S4.825 7.235 5.002 8.934c.13 1.25 1.628 2.657 1.628 2.657s.47-.613.626-1.407c.157-.803-.08-1.071-.08-1.071s-.941-1.04-.85-3.371zm.93 5.846s.054-1.418 1.642-2.639C10.486 7.728 12 7.42 12 7.42s-.212 1.509-1.568 2.735c-1.357 1.227-3.176 1.433-3.176 1.433zm.541-2.423s1.111-.998 1.329-2.712C9.348 4.695 8.247 3.6 8.247 3.6s-1.13 1.147-1.295 2.675c-.164 1.529.845 2.89.845 2.89z">
            </path>
        </g>
    </svg>