<svg xmlns="http://www.w3.org/2000/svg" viewBox="0 0 16 16" fill="none">
        <g fill="none" fill-rule="nonzero">
            <path fill="#4991F2"
                d="M8.884 1.454l2.782 1.61c.79.464 1.489.878 1.702 1.017.513.335.632.719.632 1.26v5.146c0 .777-.298 1.242-.788 1.515l-4 2.336c-.148.09-.256.156-.324.2-.53.338-1.155.352-1.783 0l-.38-.218c-.959-.555-2.99-1.754-3.784-2.224-.867-.515-.93-1.006-.936-1.59l-.001-5.073.001-.092c.012-.611.254-1.029.824-1.38l.889-.526C4.885 2.752 6.73 1.682 7.11 1.454c.512-.309 1.106-.375 1.774 0z">
            </path>
            <path fill="#FFF"
                d="M10.46 6.712H8.5c-.043.464-.095.929-.182 1.358h2.141V6.712zM5.792 8.07h1.672c.095-.43.139-.885.182-1.358H5.793V8.07zM8.57 5.11H6.585a9.962 9.962 0 0 1-.748.876h2.08c.227-.254.462-.579.653-.876zm1.106 5.853h1.158c.03 0 .058.003.085 0 .256-.033.31-.26.341-1.174.183.131.522.262.74.315-.096 1.253-.313 1.586-1.106 1.586H9.563c-.923 0-1.158-.237-1.158-1.034V8.797h-.279c-.435 1.332-1.366 2.384-3.543 2.988a2.363 2.363 0 0 0-.461-.683c1.88-.473 2.716-1.288 3.125-2.305H4.984V6.773c-.13.106-.261.21-.4.307-.131-.184-.392-.473-.584-.596a7.756 7.756 0 0 0 2.472-2.699l.888.167a4.794 4.794 0 0 1-.296.482h1.968l.121-.035.566.359a9.38 9.38 0 0 1-.844 1.227h2.437v2.812H9.25v1.85c0 .27.061.315.427.315z">
            </path>
        </g>
    </svg>