<svg xmlns="http://www.w3.org/2000/svg" viewBox="0 0 16 16" fill="none">
        <g fill="none" fill-rule="nonzero">
            <path fill="#FB4338" fill-opacity=".9"
                d="M15.873 13.496L8.863 1.481a1 1 0 0 0-1.727 0L.127 13.496A1 1 0 0 0 .991 15h14.018a1 1 0 0 0 .864-1.504z">
            </path>
            <path fill="#FFF"
                d="M8 11.9a1.1 1.1 0 1 1 0 2.2 1.1 1.1 0 0 1 0-2.2zM8.6 4a.5.5 0 0 1 .5.5v.49a1 1 0 0 1-.002.07l-.315 4.475a.5.5 0 0 1-.5.465h-.567a.5.5 0 0 1-.499-.465L6.902 5.06l-.001-.035L6.9 4.5a.5.5 0 0 1 .5-.5h1.2z">
            </path>
        </g>
    </svg>