<svg xmlns="http://www.w3.org/2000/svg" viewBox="0 0 16 16" fill="none">
        <path fill="#EB2F3B" d="M0 2a2 2 0 0 1 2-2h12a2 2 0 0 1 2 2v12a2 2 0 0 1-2 2H2a2 2 0 0 1-2-2V2z"></path>
        <path fill="#CE1E29" d="M2 16a2 2 0 0 1-2-2h16a2 2 0 0 1-2 2H2z"></path>
        <path fill="#FF4F5A" d="M8 16v-2h8a2 2 0 0 1-2 2H8z"></path>
        <path fill="#fff" fill-rule="evenodd"
            d="M7 2.5h3.25a2.75 2.75 0 1 1 0 5.5H8.5v3h-3a2.25 2.25 0 0 1 0-4.5H7v-4zm1.5 4h1.75a1.25 1.25 0 1 0 0-2.5H8.5v2.5zM7 8H5.5a.75.75 0 0 0 0 1.5H7V8z"
            clip-rule="evenodd"></path>
    </svg>