<svg xmlns="http://www.w3.org/2000/svg" viewBox="0 0 16 16" fill="none">
        <g clip-path="url(#svg-baseinfo-location_所在地__a)">
            <path stroke="currentColor" stroke-width="1.5"
                d="M12.066 10.873l-.004.005-.005.004-.004.004-.004.004-.004.005-.005.004-.004.004-.004.005-.005.004-.004.004-.004.005-.005.004-.004.004-.004.005-.005.004-.004.005-.005.004-.004.005-.005.004-.004.004-.005.005-.004.005-.005.004-.004.005-.005.004-.004.005-.005.004-.004.005-.005.005-.005.004-.005.005-.004.005-.005.004-.005.005-.004.005-.005.004-.005.005-.004.005-.005.005-.005.004-.005.005-.005.005-.004.005-.005.005-.005.004-.005.005-.005.005-.005.005-.005.005-.005.005-.004.005-.005.005-.005.005-.005.005-.005.005-.005.005-.005.005-.005.005-.005.005-.005.005-.005.005-.005.005-.005.005-.006.005-.005.005-.005.005-.005.005-.005.006-.005.005-.006.005-.005.005-.005.005-.005.005-.005.006-.005.005-.006.005-.005.005-.005.006-.006.005-.005.005-.005.005-.005.006-.006.005-.005.005-.005.006-.006.005-.005.006-.006.005-.005.005-.005.006-.006.005-.005.006-.006.005-.005.006-.006.005-.005.005-.006.006-.005.005-.006.006-.005.006-.006.005-.005.006-.006.005-.005.006-.006.005-.006.006-.005.006-.006.005-.006.006-.005.005-.006.006-.005.006-.006.005-.006.006-.005.006-.006.005-.006.006-.006.006-.005.006-.006.005-.006.006-.006.006-.005.006-.006.005-.006.006-.006.006-.006.006-.005.006-.006.005-.006.006-.006.006-.006.006-.006.006-.005.006-.006.006-.006.006-.006.005-.006.006-.006.006-.006.006-.006.006-.006.006-.006.006-.006.006-.006.006-.006.006-.006.006-.006.006-.006.006-.006.006-.006.006-.006.006-.006.006-.006.006-.006.006-.006.006-.006.006-.006.007-.006.006-.006.006-.007.006-.006.006-.006.006-.006.006-.006.007-.006.006-.007.006-.006.006-.006.006-.006.006-.006.007-.006.006-.007.006-.006.006-.006.006-.006.007-.007.006-.006.006-.006.007-.006.006-.007.006-.006.006-.006.007-.007.006-.006.006-.006.007-.007.006-.006.006-.006.007-.007.006-.006.006-.006.007-.007.006-.006.006-.006.007-.007.006-.006.006-.007.007-.006.006-.006.007-.007.006-.006.007-.007.006-.006.006-.006.007-.007.006-.006.007-.007.006-.006.007-.007.006-.006.007-.007.006-.006.007-.007.006-.006.007-.007.006-.006.007-.007.006-.006.007-.007.006-.007.007-.006.006-.007.007-.006.006-.007.007-.006.007-.007.006-.006.007-.007.006-.007.007-.006.006-.007.007-.006.007-.007.006-.007.007-.006.007-.007.006-.007.007-.006.006-.007.007-.006.007-.007.006-.007.007-.006.007-.007.006-.007.007-.006.007-.007.006-.007.007-.006.007-.007.006-.007.007-.006.007-.007.006-.007.007-.007.007-.006.007-.007.006-.007.007-.007.007-.006.007-.007.006-.007.007-.006.007-.007.006-.007.007-.007.007-.006.007-.007.007-.007.006-.007.007-.007.007-.006.007-.007.006-.007.007-.007.007-.006.007-.007.007-.007.006-.007.007-.007.007-.006.007-.007.006-.007.007-.007.007-.007.007-.006.007-.007.007-.007.006-.007.007-.007.007-.006.007-.007.007-.007.007-.007.006-.007.007-.007.007-.006.007-.007.007-.007.007-.007.006-.007.007-.007.007-.007.007-.006.007-.007.007-.007.007-.007.006-.007.007-.007.007-.007.007-.006.007-.007.007-.007.006-.007.007-.007.007-.007.007-.007.007-.006.007-.007.007-.007.007-.007.007-.007.006-.007.007-.007.007-.007.007-.007.007-.006.007-.007.007-.007.007-.007.006-.007.007-.007.007-.007.007-.007.007-.007.007-.006.007-.007.007-.007.006-.007.007-.007.007-.007.007-.007.007-.007.007-.007.007-.006.007-.007.007-.007.006-.007.007-.007.007-.007.007-.007.007-.007.007-.007.007-.006.007-.007.007-.007.007-.007.006-.007.007-.007.007-.007.007-.007.007-.007.007-.006.007-.007.007-.007.006-.007.007-.007.007-.007.007-.007.007-.007.007-.006.007-.007.007-.007.006-.007.007-.007.007-.007.007-.007.007-.007.007-.006.007-.007.007-.007.006-.007.007-.007.007-.007.007-.007.007-.006.007-.007.006-.007.007-.007.007-.007.007-.007.007-.006.007-.007.007-.007.006-.007.007-.007.007-.007.007-.006.007-.007.007-.007.006-.007.007-.007.007-.006.007-.007.007-.007.006-.007.007-.007.007-.006.007-.007.007-.007.006-.007.007-.007.007-.006.007-.007.007-.007.006-.007.007-.007.007-.006.007-.007.006-.007.007-.007.007-.006.007-.007.006-.007.007-.007.007-.006.007-.007.006-.007.007-.006.007-.007.007-.007.006-.007.007-.006.007-.007.006-.007.007-.006.007-.007.006-.007.007-.007.007-.006.007-.007.006-.007.007-.006.007-.007.006-.007.007-.006.007-.007.006-.007.007-.006.007-.007.006-.006.007-.007.006-.007.007-.006.007-.007.006-.007.007-.006.007-.007.006-.006.007-.007.006-.006.007-.007.006-.007.007-.006.007-.007.006-.006.007-.007.006-.006.007-.007.006-.006.007-.007.006-.006.007-.007.006-.007.007-.006.006-.006.007-.007.006-.006.007-.007.006-.006.007-.007.006-.006.007-.007.006-.006.007-.007.006-.006.007-.007.006-.006.006-.006.007-.007.006-.006.007-.007.006-.006.006-.006.007-.007.006-.006.006-.006.007-.007.006-.006.006-.006.007-.007.006L8.94 14l-.006.007-.007.006-.006.006-.006.007-.007.006-.006.006-.006.007-.006.006-.007.006a1.249 1.249 0 0 1-1.766 0l-.007-.006-.006-.006-.006-.007-.006-.006-.006-.006-.007-.006-.006-.007-.006-.006L7.06 14l-.006-.007-.006-.006-.006-.006-.007-.006-.006-.007-.006-.006-.007-.006-.006-.007-.006-.006-.007-.006-.006-.007-.006-.006-.007-.006-.006-.007-.007-.006-.006-.006-.006-.007-.007-.006-.006-.007-.006-.006-.007-.007-.006-.006-.007-.006-.006-.007-.007-.006-.006-.007-.007-.006-.006-.007-.006-.006-.007-.007-.006-.006-.007-.006-.006-.007-.007-.006-.006-.007-.007-.006-.006-.007-.007-.006-.006-.007-.007-.007-.006-.006-.007-.007-.007-.006-.006-.007-.007-.006-.006-.007-.007-.006-.006-.007-.007-.007-.006-.006-.007-.007-.007-.006-.006-.007-.007-.006-.006-.007-.007-.007-.007-.006-.006-.007-.007-.007-.007-.006-.006-.007-.007-.006-.006-.007-.007-.007-.007-.006-.006-.007-.007-.007-.007-.006-.006-.007-.007-.007-.007-.006-.006-.007-.007-.007-.007-.006-.006-.007-.007-.007-.007-.007-.006-.006-.007-.007-.007-.007-.007-.006-.006-.007-.007-.007-.007-.006-.006-.007-.007-.007-.007-.007-.007-.006-.006-.007-.007-.007-.007-.007-.007-.006-.006-.007-.007-.007-.007-.007-.007-.006-.006-.007-.007-.007-.007-.007-.007-.006-.007-.007-.006-.007-.007-.007-.007-.007-.007-.006-.006-.007-.007-.007-.007-.007-.007-.006-.007-.007-.006-.007-.007-.007-.007-.007-.007-.007-.007-.006-.006-.007-.007-.007-.007-.007-.007-.007-.007-.006-.006-.007-.007-.007-.007-.007-.007-.007-.007-.006-.007-.007-.006-.007-.007-.007-.007-.007-.007-.007-.007-.006-.007-.007-.006-.007-.007-.007-.007-.007-.007-.007-.007-.007-.007-.006-.006-.007-.007-.007-.007-.007-.007-.007-.007-.007-.007-.006-.007-.007-.006-.007-.007-.007-.007-.007-.007-.007-.007-.007-.007-.006-.007-.007-.006-.007-.007-.007-.007-.007-.007-.007-.007-.007-.007-.006-.007-.007-.006-.007-.007-.007-.007-.007-.007-.007-.007-.007-.007-.006-.007-.007-.006-.007-.007-.007-.007-.007-.007-.007-.007-.007-.007-.006-.007-.007-.006-.007-.007-.007-.007-.007-.007-.007-.007-.007-.007-.006-.006-.007-.007-.007-.007-.007-.007-.007-.007-.007-.007-.006-.007-.007-.006-.007-.007-.007-.007-.007-.007-.007-.007-.006-.007-.007-.006-.007-.007-.007-.007-.007-.007-.007-.007-.006-.007-.007-.006-.007-.007-.007-.007-.007-.007-.007-.007-.006-.007-.007-.006-.007-.007-.007-.007-.007-.007-.007-.007-.006-.006-.007-.007-.007-.007-.007-.007-.006-.007-.007-.006-.007-.007-.007-.007-.007-.007-.007-.007-.006-.006-.007-.007-.007-.007-.007-.007-.006-.006-.007-.007-.007-.007-.007-.007-.007-.007-.006-.006-.007-.007-.007-.007-.006-.007-.007-.006-.007-.007-.007-.007-.007-.007-.006-.006-.007-.007-.007-.007-.006-.006-.007-.007-.007-.007-.007-.007-.006-.006-.007-.007-.007-.007-.006-.006-.007-.007-.007-.007-.007-.007-.006-.006-.007-.007-.006-.007-.007-.006-.007-.007-.006-.007-.007-.006-.007-.007-.007-.007-.006-.006-.007-.007-.007-.006-.006-.007-.007-.007-.006-.006-.007-.007-.007-.007-.006-.006-.007-.007-.007-.006-.006-.007-.007-.007-.006-.006-.007-.007-.006-.006-.007-.007-.007-.006-.006-.007-.007-.007-.006-.006-.007-.007-.006-.006-.007-.007-.006-.006-.007-.007-.006-.006-.007-.007-.006-.006-.007-.007-.006-.006-.007-.007-.006-.006-.007-.007-.006-.006-.007-.007-.006-.006-.007-.007-.006-.006-.007L5.06 12l-.006-.007-.006-.006-.007-.007-.006-.006-.007-.006-.006-.007-.007-.006-.006-.007-.006-.006-.007-.006-.006-.007-.006-.006-.007-.007-.006-.006-.007-.006-.006-.006-.006-.007-.007-.006-.006-.006-.006-.007-.006-.006-.007-.006-.006-.007-.006-.006-.007-.006-.006-.007-.006-.006-.006-.006-.007-.006-.006-.007-.006-.006-.006-.006-.007-.006-.006-.007-.006-.006-.006-.006-.006-.006-.007-.006-.006-.006-.006-.007-.006-.006-.006-.006-.006-.006-.007-.006-.006-.006-.006-.007-.006-.006-.006-.006-.006-.006-.006-.006-.006-.006-.006-.006-.006-.006-.007-.006-.006-.006-.006-.006-.006-.006-.006-.006-.006-.006-.006-.006-.006-.006-.006-.006-.006-.006-.006-.006-.006-.006-.006-.006-.006-.006-.005-.006-.006-.006-.006-.006-.006-.006-.006-.006-.006-.006-.006-.005-.006-.006-.006-.006-.005-.006-.006-.006-.006-.006-.006-.006-.006-.005-.006-.006-.005-.006-.006-.006-.006-.006-.006-.005-.005-.006-.006-.006-.006-.006-.006-.005-.005-.006-.006-.006-.006-.005-.005-.006-.006-.006-.006-.005-.005-.006-.006-.006-.006-.005-.005-.006-.006-.006-.006-.005-.005-.006-.006-.005-.005-.006-.006-.005-.005-.006-.006-.006-.005-.005-.006-.006-.005-.005-.006-.006-.005-.005-.006-.006-.005-.005-.006-.005-.005-.006-.006-.005-.005-.006-.006-.005-.005-.006-.005-.005-.006-.005-.005-.006-.005-.005-.006-.005-.005-.006-.005-.005-.006-.005-.005-.006-.005-.005-.006-.005-.005-.005-.005-.006-.005-.005-.005-.005-.006-.005-.005-.005-.005-.006-.005-.005-.005-.005-.006-.005-.005-.005-.005-.006-.005-.005-.005-.005-.005-.005-.005-.005-.005-.005-.005-.005-.005-.005-.005-.005-.005-.005-.005-.005-.005-.005-.005-.005-.005-.005-.005-.005-.005-.005-.005-.005-.005-.005-.005-.005-.005-.004-.005-.005-.004-.005-.005-.005-.005-.005-.005-.005-.005-.004-.005-.005-.004-.005-.005-.005-.005-.004-.005-.005-.004-.005L4.06 11l-.005-.004-.004-.005-.005-.005-.005-.004-.004-.005-.005-.005-.004-.004-.005-.005-.005-.004-.004-.005-.005-.004-.004-.005L4 10.94l-.004-.004-.005-.005-.004-.004-.005-.004-.004-.005-.005-.004-.004-.005-.004-.004-.005-.005-.004-.004-.005-.004-.004-.005-.004-.004-.005-.004-.004-.005a5.75 5.75 0 1 1 8.132 0z">
            </path>
            <path fill="currentColor" d="M9.5 6.5a1.5 1.5 0 1 1-3 0 1.5 1.5 0 0 1 3 0z"></path>
        </g>
        <defs>
            <clipPath id="svg-baseinfo-location_所在地__a">
                <path fill="#fff" d="M0 0h16v16H0z"></path>
            </clipPath>
        </defs>
    </svg>