<svg xmlns="http://www.w3.org/2000/svg" viewBox="0 0 16 16" fill="none">
        <g clip-path="url(#svg-baseinfo-home_location_户籍__a)">
            <path stroke="currentColor" stroke-width="1.5"
                d="M1.75 5.16c0-.448.24-.862.63-1.085l5-2.857a1.25 1.25 0 0 1 1.24 0l5 2.857c.39.223.63.637.63 1.086V13c0 .69-.56 1.25-1.25 1.25H3c-.69 0-1.25-.56-1.25-1.25V5.16z">
            </path>
            <path fill="currentColor"
                d="M9.5 6.5a1.5 1.5 0 1 1-3 0 1.5 1.5 0 0 1 3 0zM6 9a2 2 0 0 0-2 2v1h1.5v-1a.5.5 0 0 1 .5-.5h4a.5.5 0 0 1 .5.5v1H12v-1a2 2 0 0 0-2-2H6z">
            </path>
        </g>
        <defs>
            <clipPath id="svg-baseinfo-home_location_户籍__a">
                <path fill="#fff" d="M0 0h16v16H0z"></path>
            </clipPath>
        </defs>
    </svg>