<svg xmlns="http://www.w3.org/2000/svg" viewBox="0 0 280 154" fill="none">
        <defs>
            <rect id="svg-analysis-init2_a" width="117" height="92" x="0" y="0" rx="4"></rect>
        </defs>
        <g fill="none" fill-rule="evenodd">
            <path d="M0 0h280v154H0z"></path>
            <path fill="#F9FAFD"
                d="M187.661 141.526c22.403 1.805 23.992 6.467 23.992 8.723 0 2.256-19.225 5.415-30.188 2.708-10.963-2.708-28.122-3.76-33.365-3.76-3.496 0-4.29-1.304-2.384-3.911 13.029-3.71 27.01-4.963 41.945-3.76zM50.206 5.645c42.5-22.187 54.845 27.827 88.237 33.092 33.393 5.265 51.466-38.482 78.18-27.2 17.631 7.445 15.956 16.774 14.176 26.96l-.162.929c-.858 4.963-1.604 10.121-.05 15.356 4.857 16.358 40.88 12.033 33.393 50.39-7.488 38.357-25.724 42.04-60.657 35.401-34.934-6.637-62.086 0-108.135 6.638-46.049 6.638-63.795-28.38-73.711-43.422-9.917-15.042-13.77-75.957 28.73-98.144z"
                style="mix-blend-mode:multiply" opacity=".796"></path>
            <g transform="translate(104 47)">
                <mask id="svg-analysis-init2_b" fill="#fff">
                    <use xlink:href="#svg-analysis-init2_a"></use>
                </mask>
                <use fill="#678DFF" xlink:href="#svg-analysis-init2_a"></use>
                <g mask="url(#svg-analysis-init2_b)">
                    <g transform="translate(93 47)">
                        <rect width="6" height="40.135" y="14.865" fill="#99B8FF" rx="3"></rect>
                        <rect width="6" height="55" x="10" fill="#4872EF" rx="3"></rect>
                    </g>
                </g>
                <g mask="url(#svg-analysis-init2_b)">
                    <g transform="translate(65 67)">
                        <rect width="6" height="35" fill="#99B8FF" rx="3"></rect>
                        <rect width="6" height="27" x="10" y="8" fill="#4872EF" rx="3"></rect>
                    </g>
                </g>
                <g mask="url(#svg-analysis-init2_b)">
                    <g transform="translate(37 75)">
                        <rect width="6" height="18" y="9" fill="#99B8FF" rx="3"></rect>
                        <rect width="6" height="27" x="10" fill="#4872EF" rx="3"></rect>
                    </g>
                </g>
                <g mask="url(#svg-analysis-init2_b)">
                    <g transform="translate(9 84)">
                        <rect width="6" height="18" fill="#99B8FF" rx="3"></rect>
                        <rect width="6" height="14" x="10" y="4" fill="#4872EF" rx="3"></rect>
                    </g>
                </g>
                <path stroke="#FFF" stroke-dasharray="3" stroke-linecap="round" stroke-linejoin="round"
                    d="M12 87c6-4.622 15.333-5.2 28-1.733 19 5.2 16.5-3.467 28-5.778 11.5-2.311 31 10.4 38-5.489"
                    mask="url(#svg-analysis-init2_b)"></path>
            </g>
            <g transform="translate(60 16)">
                <rect width="142.92" height="104.92" x=".54" y=".54" fill="#FFF" stroke="#DDE0E7" stroke-width="1.08"
                    rx="4"></rect><text fill="#678DFF" fill-rule="nonzero"
                    font-family="MicrosoftYaHei-Bold, Microsoft YaHei" font-size="16" font-weight="bold">
                    <tspan x="12.211" y="28">TRIMG</tspan>
                </text>
                <g transform="translate(11 42)">
                    <rect width="10" height="39" y="16" fill="#F4F5F7" rx="2"></rect>
                    <rect width="10" height="39" x="48" y="16" fill="#F4F5F7" rx="2"></rect>
                    <rect width="10" height="32" x="32" y="23" fill="#F4F5F7" rx="2"></rect>
                    <rect width="10" height="55" x="80" fill="#678DFF" opacity=".2" rx="2"></rect>
                    <rect width="10" height="39" x="96" y="16" fill="#F4F5F7" rx="2"></rect>
                    <rect width="10" height="32" x="112" y="23" fill="#F4F5F7" rx="2"></rect>
                    <rect width="10" height="47" x="16" y="8" fill="#F4F5F7" rx="2"></rect>
                    <rect width="10" height="28" x="64" y="27" fill="#F4F5F7" rx="2"></rect>
                </g>
                <path stroke="#678DFF" stroke-linecap="round" stroke-linejoin="round" stroke-width="2"
                    d="M16 76.5L32 62l16 21 16-14 16 11 16-29.5 14.5 19L128 74"></path>
            </g>
        </g>
    </svg>