<svg xmlns="http://www.w3.org/2000/svg" viewBox="0 0 60 60" fill="none">
        <g fill="none" fill-rule="evenodd">
            <path d="M0 0h60v60H0z"></path>
            <g fill="#417FF9" fill-rule="nonzero">
                <path
                    d="M15.584 23.288v-4.152H7.856v-2.184h7.728V13.28H7.352v-2.208h19.296v2.208h-8.232v3.672h7.704v2.184h-7.704v4.152h9.168v2.184H6.416v-2.184h9.168zM23.36 10.04a57.816 57.816 0 0 1-3.264-2.448 50.207 50.207 0 0 1-3.12-2.736 38.19 38.19 0 0 1-6.288 5.184H6.104a54.914 54.914 0 0 0 2.532-1.644 49.941 49.941 0 0 0 4.272-3.288 17.983 17.983 0 0 0 1.452-1.38h5.112c.384.384.888.832 1.512 1.344a62.448 62.448 0 0 0 2.052 1.608c.744.56 1.532 1.128 2.364 1.704.832.576 1.648 1.128 2.448 1.656H23.36zM53.44 4.472v2.136h-9.384c-.096.368-.2.744-.312 1.128-.112.384-.232.744-.36 1.08h9.36v16.656H33.256V8.816h7.272c.128-.352.252-.72.372-1.104.12-.384.228-.752.324-1.104h-8.688V4.472H53.44zm-17.712 18.84h3.432V10.976h-3.432v12.336zM46.84 10.976v12.336h3.408V10.976H46.84zm-5.544 2.832h3.36v-2.832h-3.36v2.832zm0 9.504h3.36V20.48h-3.36v2.832zm0-4.752h3.36v-2.832h-3.36v2.832zM8.216 41.88h-2.16v-2.208h4.872v14.496H12.8v2.304a88.211 88.211 0 0 0 3.108-1.68 77.522 77.522 0 0 0 2.904-1.728c.92-.576 1.78-1.144 2.58-1.704s1.52-1.096 2.16-1.608h4.272c-.8.672-1.632 1.332-2.496 1.98a61.871 61.871 0 0 1-5.1 3.444c-.824.496-1.604.928-2.34 1.296H8.216V41.88zm16.392-.528a53.966 53.966 0 0 1-2.16-2.652c-.768-1-1.504-2.028-2.208-3.084a38.497 38.497 0 0 1-2.244 3.144 28.096 28.096 0 0 1-2.316 2.592h-3.384a47.64 47.64 0 0 0 3.108-3.468c.952-1.176 1.724-2.228 2.316-3.156h4.968c.288.448.644.944 1.068 1.488.424.544.876 1.112 1.356 1.704.48.592.976 1.18 1.488 1.764l1.464 1.668h-3.456zm-11.256 9.096a61.853 61.853 0 0 0 5.088-2.736c1.536-.928 2.856-1.8 3.96-2.616h4.008a90.326 90.326 0 0 1-4.188 2.964 43.294 43.294 0 0 1-4.02 2.388h-4.848zm.024-4.8a52.057 52.057 0 0 0 3.792-2.328 49.42 49.42 0 0 0 2.952-2.16h3.864a65.17 65.17 0 0 1-3.204 2.52 38.006 38.006 0 0 1-2.964 1.968h-4.44zM8.552 38.76a28.27 28.27 0 0 0-.48-2.112c-.192-.72-.392-1.36-.6-1.92h2.64c.192.512.396 1.132.612 1.86.216.728.412 1.452.588 2.172h-2.76zM43.864 56.472c.368-1.52.604-3.208.708-5.064.104-1.856.156-3.808.156-5.856v-9.936l8.808-.672v2.304l-6.504.48v3.528h6.864v2.184H52.12v13.032h-2.304V43.44h-2.784v2.088c0 2.144-.048 4.152-.144 6.024-.096 1.872-.28 3.512-.552 4.92h-2.472zm-11.28 0V34.728h2.184v19.536h8.88v2.208H32.584zm6-13.368h-3.072V41.16h3.072v-6.432h1.992v6.432h3.144v1.944h-3.144v10.584h-1.992V43.104zm-3.24 10.584a54.88 54.88 0 0 0 .276-2.256c.088-.848.168-1.724.24-2.628.072-.904.136-1.788.192-2.652.056-.864.092-1.64.108-2.328h1.776c-.016.736-.04 1.532-.072 2.388a94.427 94.427 0 0 1-.132 2.58c-.056.864-.12 1.716-.192 2.556-.072.84-.14 1.62-.204 2.34h-1.992zm7.68-9.864c.032.656.072 1.428.12 2.316a175.892 175.892 0 0 0 .372 5.376c.072.856.148 1.58.228 2.172h-1.872c-.048-.592-.104-1.308-.168-2.148-.064-.84-.12-1.716-.168-2.628-.048-.912-.092-1.812-.132-2.7-.04-.888-.068-1.684-.084-2.388h1.704zm-5.64-8.688c.128.752.24 1.568.336 2.448.096.88.176 1.76.24 2.64h-1.752a59.799 59.799 0 0 0-.24-2.592 66.674 66.674 0 0 0-.336-2.496h1.752zm3.888 5.088c.112-.848.216-1.708.312-2.58.096-.872.16-1.7.192-2.484h1.728c-.032.848-.096 1.7-.192 2.556-.096.856-.2 1.692-.312 2.508h-1.728z">
                </path>
            </g>
        </g>
    </svg>