<svg xmlns="http://www.w3.org/2000/svg" viewBox="0 0 16 16" fill="none">
        <path stroke="#757575" stroke-linejoin="round"
            d="M5 6.75v7.5m9.246-6.75l-.444 5.396a1.5 1.5 0 0 1-1.493 1.358H5L5 6.75c0-.301.049-.3.186-.46C6.334 4.943 6.57 4.39 7.24 2.165c.202-.487.635-.993 1.109-.762.893.435 1.41 1.193 1.308 2.371-.07.81-.135 1.559-.204 2.044-.031.221.167.447.389.42l3.01-.356c.095-.003.192 0 .286.026A1.5 1.5 0 0 1 14.246 7.5z">
        </path>
        <path stroke="#757575" d="M5 6.75H3.5A1.5 1.5 0 0 0 2 8.25v4.5a1.5 1.5 0 0 0 1.5 1.5H5"></path>
    </svg>