<svg xmlns="http://www.w3.org/2000/svg" viewBox="0 0 16 16" fill="none">
        <g fill="#2C69F9" fill-rule="evenodd">
            <path fill-rule="nonzero"
                d="M9.932 1.307c1.859.187 3.351 1.307 3.67 3.227h-1.077l1.737 2.586L16 4.534h-1.199C14.483 1.948 12.526.267 10.054.027c-.342-.027-.66.266-.66.64.023.32.243.613.538.64zm-3.866 13.36c-2.08-.186-3.67-1.573-3.743-3.867h1.15L1.737 8.214 0 10.8h1.15c.048 2.961 2.127 4.88 4.795 5.147.342.027.66-.267.66-.64a.638.638 0 0 0-.539-.64z">
            </path>
            <rect width="7" height="7" rx="1"></rect>
            <rect width="7" height="7" x="8" y="9" rx="1"></rect>
        </g>
    </svg>