<svg xmlns="http://www.w3.org/2000/svg" viewBox="0 0 16 16" fill="none">
        <defs>
            <path id="svg-template-pay-white_a"
                d="M5.085 4.86c-.005-.26-.349-.36-.492-.141-.656 1-1.76 2.972-1.572 5.122.157 1.808 1.213 3.64 2.412 4.317.13.074.357.128.447-.042.23-.437.431-1.094.63-2.003.107-.498.136-1.12.045-1.582a2.534 2.534 0 0 0-.253-.647c-.36-.653-1.174-2.197-1.217-5.025zm4.257.575c.259-2.43-.67-4.153-1.109-4.816a.268.268 0 0 0-.44-.007c-.47.663-1.54 2.378-1.733 4.505-.192 2.123.678 4.067 1.08 4.835.09.172.331.194.449.039.482-.636 1.504-2.227 1.753-4.556zm-.425 4.422c-1.833 1.705-2.15 3.556-2.267 4.341a.263.263 0 0 0 .32.295 8.21 8.21 0 0 0 4.24-2.455c1.538-1.683 2.092-3.66 2.27-4.516a.262.262 0 0 0-.346-.3c-.762.27-2.46 1-4.217 2.635z">
            </path>
        </defs>
        <use fill="#FFF" fill-rule="evenodd" xlink:href="#svg-template-pay-white_a"></use>
    </svg>