<svg xmlns="http://www.w3.org/2000/svg" viewBox="0 0 32 32" fill="none">
        <path fill="currentColor"
            d="M23.52 7.66l.823.824c.88.88.88 2.305 0 3.185l-1.985 1.985-4.012-4.009L20.33 7.66c.88-.88 2.305-.88 3.185 0h.004zM8.582 19.413l8.968-8.972 4.013 4.012-8.972 8.969a1.976 1.976 0 0 1-.852.5l-3.66 1.045a.844.844 0 0 1-1.046-1.045l1.045-3.66c.092-.325.264-.617.5-.853l.004.004zm7.198-8.793l-5.14 5.14-3.076-3.08a1.693 1.693 0 0 1 0-2.39l2.75-2.746a1.693 1.693 0 0 1 2.39 0l.696.697-.035.031-2.253 2.253a.565.565 0 0 0 0 .796.565.565 0 0 0 .796 0l2.253-2.253c.01-.01.02-.025.031-.035l1.588 1.587zm5.603 5.604l1.588 1.587c-.01.01-.025.021-.035.032l-2.253 2.253a.565.565 0 0 0 0 .795.565.565 0 0 0 .795 0l2.253-2.253.032-.035.697.7a1.693 1.693 0 0 1 0 2.39l-2.75 2.746a1.693 1.693 0 0 1-2.39 0l-3.076-3.076 5.14-5.14z">
        </path>
    </svg>