<svg xmlns="http://www.w3.org/2000/svg" viewBox="0 0 32 32" fill="none">
        <path fill="currentColor"
            d="M8.222 8C6.997 8 6 8.96 6 10.143v11.714C6 23.04 6.997 24 8.222 24h15.556C25.004 24 26 23.04 26 21.857V10.143C26 8.96 25.003 8 23.778 8H8.222zM11 17.071h2.222c1.535 0 2.778 1.2 2.778 2.679 0 .295-.25.536-.556.536H8.778a.548.548 0 0 1-.556-.536c0-1.48 1.243-2.679 2.778-2.679zm3.333-3.214c0 1.182-.996 2.143-2.222 2.143s-2.222-.96-2.222-2.143c0-1.182.996-2.143 2.222-2.143s2.222.961 2.222 2.143zm4.245-1.071h4.444c.306 0 .556.24.556.535 0 .295-.25.536-.556.536h-4.444a.547.547 0 0 1-.556-.536c0-.294.25-.535.556-.535zm0 2.643h4.444c.306 0 .556.24.556.535 0 .295-.25.536-.556.536h-4.444a.548.548 0 0 1-.556-.536c0-.294.25-.535.556-.535zm0 2.642h4.444c.306 0 .556.241.556.536 0 .295-.25.536-.556.536h-4.444a.548.548 0 0 1-.556-.536c0-.294.25-.536.556-.536z">
        </path>
    </svg>