<svg xmlns="http://www.w3.org/2000/svg" viewBox="0 0 32 32" fill="none">
        <path fill="currentColor"
            d="M14.11 8.6h4.78c.147 0 .266.12.266.267V10.2h-5.312V8.867c0-.147.12-.267.265-.267zm-1.86.267V10.2h-2.125A2.131 2.131 0 0 0 8 12.333v3.2h17v-3.2a2.131 2.131 0 0 0-2.125-2.133H20.75V8.867c0-1.03-.833-1.867-1.86-1.867h-4.78c-1.027 0-1.86.837-1.86 1.867zM25 16.6h-6.375v1.067c0 .59-.475 1.066-1.063 1.066h-2.125a1.063 1.063 0 0 1-1.062-1.066V16.6H8v4.267C8 22.043 8.953 23 10.125 23h12.75A2.131 2.131 0 0 0 25 20.867V16.6z">
        </path>
    </svg>