<svg xmlns="http://www.w3.org/2000/svg" viewBox="0 0 32 32" fill="none">
        <path fill="currentColor"
            d="M17.5 8a2.28 2.28 0 0 0-.777.137l-9.204 3.391a.806.806 0 0 0-.518.757c0 .338.206.64.518.756l1.9.7a5.592 5.592 0 0 0-.844 2.96v.94c0 .95-.354 1.932-.731 2.705a8.913 8.913 0 0 1-.739 1.259.548.548 0 0 0-.075.502c.06.17.197.297.368.341l2.1.536a.525.525 0 0 0 .64-.415 8.8 8.8 0 0 0-.07-3.64 7.509 7.509 0 0 0-.443-1.405V16.7c0-1.01.335-1.965.916-2.728a4.011 4.011 0 0 1 1.614-1.195l5.152-2.066a.521.521 0 0 1 .679.302.538.538 0 0 1-.295.693l-5.152 2.065a3.009 3.009 0 0 0-1.056.723l5.236 1.928a2.282 2.282 0 0 0 1.556 0l9.207-3.38a.802.802 0 0 0 .518-.757.806.806 0 0 0-.518-.757l-9.204-3.39A2.28 2.28 0 0 0 17.5 8zm-6.3 12.587c0 1.181 2.822 2.41 6.3 2.41 3.478 0 6.3-1.229 6.3-2.41l-.502-4.867-4.666 1.72a3.283 3.283 0 0 1-2.264 0l-4.666-1.72-.502 4.867z">
        </path>
    </svg>