<svg xmlns="http://www.w3.org/2000/svg" viewBox="0 0 32 32" fill="none">
        <path fill="currentColor"
            d="M14.75 9.684c0-.323-.204-.608-.464-.801-.408-.306-.661-.728-.661-1.195 0-.932 1.009-1.688 2.25-1.688s2.25.756 2.25 1.688c0 .467-.253.889-.66 1.195-.261.193-.465.478-.465.801 0 .45.366.816.816.816h1.997c.931 0 1.687.756 1.687 1.688v1.996c0 .45.366.816.816.816.323 0 .608-.204.801-.464.306-.408.728-.661 1.195-.661.932 0 1.688 1.009 1.688 2.25s-.756 2.25-1.688 2.25c-.467 0-.889-.253-1.195-.66-.193-.261-.478-.465-.801-.465a.816.816 0 0 0-.816.816v4.247c0 .931-.756 1.687-1.688 1.687h-1.996a.816.816 0 0 1-.816-.816c0-.323.204-.608.464-.801.408-.306.661-.728.661-1.195 0-.932-1.009-1.688-2.25-1.688s-2.25.756-2.25 1.688c0 .467.253.889.66 1.195.261.193.465.478.465.801 0 .45-.366.816-.816.816H9.688A1.688 1.688 0 0 1 8 22.312v-4.246c0-.45.366-.816.816-.816.323 0 .608.204.801.464.306.408.728.661 1.195.661.932 0 1.688-1.009 1.688-2.25s-.756-2.25-1.688-2.25c-.467 0-.889.253-1.195.66-.193.261-.478.465-.801.465A.816.816 0 0 1 8 14.184v-1.996c0-.932.756-1.688 1.688-1.688h4.246c.45 0 .816-.366.816-.816z">
        </path>
    </svg>