<svg xmlns="http://www.w3.org/2000/svg" viewBox="0 0 32 32" fill="none">
        <path fill="currentColor" fill-rule="evenodd"
            d="M8.8 8A1.8 1.8 0 0 0 7 9.8v6.106a1.8 1.8 0 0 0 1.8 1.8h2.644v4.26a1.034 1.034 0 0 0 2.015.33l1.354-4.032c.124-.37.187-.757.187-1.146V9.8A1.8 1.8 0 0 0 13.2 8H8.8zm10 0A1.8 1.8 0 0 0 17 9.8v6.106a1.8 1.8 0 0 0 1.8 1.8h2.644v4.26a1.034 1.034 0 0 0 2.015.33l1.354-4.032c.124-.37.187-.757.187-1.146V9.8A1.8 1.8 0 0 0 23.2 8h-4.4z"
            clip-rule="evenodd"></path>
    </svg>