<svg xmlns="http://www.w3.org/2000/svg" viewBox="0 0 32 32" fill="none">
        <path fill="currentColor"
            d="M16.316 16.011c.003.252.105.422.308.506l.093.03-1.087 5.02 1.393 1.155 1.714-1.155-1.377-5.013c.335-.06.433-.22.448-.468l.003-.071c4.038.16 7.189 1.569 7.189 5.69 0 4.393-16 4.393-16 0 0-4.153 3.202-5.552 7.285-5.693h.03zM17 7c.556 0 1.107.105 1.62.308.515.204.982.502 1.375.878s.705.823.918 1.314a3.897 3.897 0 0 1 0 3.1 4.042 4.042 0 0 1-.918 1.314c-.393.376-.86.674-1.374.877A4.405 4.405 0 0 1 17 15.1c-1.123 0-2.2-.427-2.995-1.186a3.962 3.962 0 0 1-1.24-2.864c0-1.074.446-2.104 1.24-2.864A4.336 4.336 0 0 1 17 7z">
        </path>
    </svg>