<svg xmlns="http://www.w3.org/2000/svg" viewBox="0 0 32 32" fill="none">
        <path fill="currentColor"
            d="M19.375 9.375c0 .503-.109.98-.31 1.413l1.857 3.207a6.726 6.726 0 0 1-3.111 1.884L16 12.75l-2.392 4.131c.756.24 1.558.37 2.395.37a7.858 7.858 0 0 0 6.149-2.954 1.127 1.127 0 0 1 1.582-.176c.485.387.562 1.097.175 1.582A10.126 10.126 0 0 1 16 19.5c-1.244 0-2.44-.225-3.54-.636l-1.99 3.438a1.696 1.696 0 0 1-.707.665l-1.947.974A.564.564 0 0 1 7 23.438V21.49c0-.295.077-.587.229-.847l2.109-3.646c-.45-.394-.868-.826-1.241-1.294a1.124 1.124 0 1 1 1.758-1.406c.2.25.415.485.64.707l2.44-4.216a3.376 3.376 0 1 1 6.44-1.413zm.738 10.473a11.312 11.312 0 0 0 3.126-1.86l1.536 2.655a1.7 1.7 0 0 1 .229.847v1.948a.565.565 0 0 1-.816.503l-1.947-.974a1.694 1.694 0 0 1-.707-.665l-1.42-2.454zM16 10.5a1.124 1.124 0 1 0 0-2.25 1.124 1.124 0 1 0 0 2.25z">
        </path>
    </svg>