<svg xmlns="http://www.w3.org/2000/svg" viewBox="0 0 32 32" fill="none">
        <path fill="currentColor"
            d="M15.238 5.226c.458-.3 1.058-.3 1.516 0l.741.48c.25.16.542.238.837.221l.887-.053a1.38 1.38 0 0 1 1.313.746l.4.784c.133.262.35.471.612.603l.804.397c.491.242.791.75.758 1.292l-.054.874c-.017.291.062.582.224.824l.492.73a1.335 1.335 0 0 1 0 1.493l-.492.734a1.353 1.353 0 0 0-.224.825l.054.873a1.351 1.351 0 0 1-.758 1.292l-.796.394a1.372 1.372 0 0 0-.612.603l-.404.791a1.38 1.38 0 0 1-1.312.747l-.887-.054a1.399 1.399 0 0 0-.838.222l-.741.484c-.458.3-1.058.3-1.516 0l-.746-.484a1.407 1.407 0 0 0-.837-.222l-.887.054a1.38 1.38 0 0 1-1.312-.747l-.4-.783a1.371 1.371 0 0 0-.613-.603l-.803-.398a1.351 1.351 0 0 1-.759-1.292l.055-.873a1.345 1.345 0 0 0-.225-.825l-.488-.734a1.335 1.335 0 0 1 0-1.493l.488-.73c.162-.246.241-.533.225-.824L8.885 9.7a1.351 1.351 0 0 1 .759-1.292l.795-.393c.267-.136.483-.349.617-.611l.4-.784a1.38 1.38 0 0 1 1.312-.746l.887.053c.296.017.591-.061.837-.221l.745-.48zm4.09 7.649c0-1.813-1.491-3.281-3.332-3.281-1.841 0-3.333 1.468-3.333 3.28 0 1.814 1.492 3.282 3.333 3.282 1.84 0 3.332-1.468 3.332-3.281zM8.052 23.12l1.796-4.204a.032.032 0 0 1 .016.016l.4.784c.488.951 1.5 1.53 2.583 1.468l.887-.053c.008 0 .02 0 .029.008l.741.484c.213.135.438.242.671.316L13.609 25.6a.658.658 0 0 1-.554.398.665.665 0 0 1-.617-.295l-1.34-2.022-2.338.34a.685.685 0 0 1-.624-.246.645.645 0 0 1-.088-.656h.004zm10.33 2.477l-1.566-3.658c.233-.074.458-.177.67-.316l.742-.484a.061.061 0 0 1 .03-.008l.887.053a2.724 2.724 0 0 0 2.582-1.468l.4-.784a.032.032 0 0 1 .017-.016l1.799 4.204a.656.656 0 0 1-.712.902l-2.337-.34-1.341 2.018a.665.665 0 0 1-.617.295.665.665 0 0 1-.554-.398z">
        </path>
    </svg>