<svg xmlns="http://www.w3.org/2000/svg" viewBox="0 0 32 32" fill="none">
        <path fill="currentColor"
            d="M10.926 13.422L8 18.512v-9.37C8 7.962 8.947 7 10.111 7h3.876c.561 0 1.099.224 1.495.626l.874.887c.396.402.933.627 1.494.627h3.873c1.165 0 2.111.96 2.111 2.142v1.072H12.75c-.752 0-1.445.405-1.824 1.065v.003zm.91.539c.192-.332.538-.532.914-.532h13.196c.379 0 .725.204.913.539.188.335.188.743-.003 1.074l-3.695 6.429a1.048 1.048 0 0 1-.91.529H9.056c-.38 0-.726-.204-.914-.54a1.086 1.086 0 0 1 .003-1.074l3.695-6.428-.004.003z">
        </path>
    </svg>