<svg xmlns="http://www.w3.org/2000/svg" viewBox="0 0 32 32" fill="none">
        <path fill="currentColor" fill-rule="evenodd"
            d="M10.5 6A2.5 2.5 0 0 0 8 8.5v14a2.5 2.5 0 0 0 2.5 2.5h3v-4.5a2.5 2.5 0 0 1 5 0V25h3a2.5 2.5 0 0 0 2.5-2.5v-14A2.5 2.5 0 0 0 21.5 6h-11zm.6 2.5a.6.6 0 0 0-.6.6v1.5a.6.6 0 0 0 .6.6h1.6a.6.6 0 0 0 .6-.6V9.1a.6.6 0 0 0-.6-.6h-1.6zm4.102 0a.6.6 0 0 0-.6.6v1.5a.6.6 0 0 0 .6.6h1.6a.6.6 0 0 0 .6-.6V9.1a.6.6 0 0 0-.6-.6h-1.6zm3.497.6a.6.6 0 0 1 .6-.6h1.6a.6.6 0 0 1 .6.6v1.5a.6.6 0 0 1-.6.6h-1.6a.6.6 0 0 1-.6-.6V9.1zM11.1 12.5a.6.6 0 0 0-.6.6v1.5a.6.6 0 0 0 .6.6h1.6a.6.6 0 0 0 .6-.6v-1.5a.6.6 0 0 0-.6-.6h-1.6zm3.502.6a.6.6 0 0 1 .6-.6h1.6a.6.6 0 0 1 .6.6v1.5a.6.6 0 0 1-.6.6h-1.6a.6.6 0 0 1-.6-.6v-1.5zm4.697-.6a.6.6 0 0 0-.6.6v1.5a.6.6 0 0 0 .6.6h1.6a.6.6 0 0 0 .6-.6v-1.5a.6.6 0 0 0-.6-.6h-1.6z"
            clip-rule="evenodd"></path>
    </svg>