<svg xmlns="http://www.w3.org/2000/svg" viewBox="0 0 16 16" fill="none">
        <g fill="none" fill-rule="evenodd">
            <rect width="16" height="16" rx="2"></rect>
            <path fill="#8B97AF"
                d="M9 11H7v2h2v-2zm3-8H4a1 1 0 0 0-.993.883L3 4v5a1 1 0 0 0 .883.993L4 10h8a1 1 0 0 0 .993-.883L13 9V4a1 1 0 0 0-.883-.993L12 3zM9 6a.5.5 0 0 1 .5.5v1a.5.5 0 0 1-1 0v-1A.5.5 0 0 1 9 6zM5 6a.5.5 0 0 1 .5.5v1a.5.5 0 0 1-1 0v-1A.5.5 0 0 1 5 6zm6-1a.5.5 0 0 1 .5.5v2a.5.5 0 1 1-1 0v-2A.5.5 0 0 1 11 5zM7 5a.5.5 0 0 1 .5.5v2a.5.5 0 0 1-1 0v-2A.5.5 0 0 1 7 5zm5.5 8a.5.5 0 1 1 0 1h-9a.5.5 0 1 1 0-1H6v-2H4a2 2 0 0 1-2-2V4a2 2 0 0 1 2-2h8a2 2 0 0 1 2 2v5a2 2 0 0 1-2 2h-2v2h2.5z">
            </path>
        </g>
    </svg>