<svg xmlns="http://www.w3.org/2000/svg" viewBox="0 0 16 16" fill="none">
        <g fill="none" fill-rule="evenodd">
            <rect width="16" height="16" rx="2"></rect>
            <path fill="#8B97AF"
                d="M8.702 2.65l5.346 2.709c.287.146.452.378.452.639 0 .26-.165.493-.452.638l-1.549.784.001 4.08c-.052 1.245-2.293 2-4.498 2-2.181 0-4.403-.782-4.502-2l-.001-4.081-1.547-.783c-.287-.145-.452-.378-.452-.638s.165-.494.453-.64L7.298 2.65c.391-.199 1.011-.199 1.404 0zM4.5 7.925L4.5 11.5c.004.35 1.36 1.055 3.502 1.055 2.14 0 3.494-.705 3.498-1.055l-.001-3.573-2.797 1.419A1.58 1.58 0 0 1 8 9.5c-.256 0-.506-.055-.702-.154L4.5 7.926zM14 7.5c.276 0 .5.225.5.503v3.994a.501.501 0 0 1-.5.503.501.501 0 0 1-.5-.503V8.003c0-.278.224-.503.5-.503zM8 3.442a.462.462 0 0 0-.189.033L2.834 5.997 7.811 8.52a.472.472 0 0 0 .19.033c.097 0 .164-.02.188-.033l4.977-2.523-4.977-2.522A.471.471 0 0 0 8 3.442z">
            </path>
        </g>
    </svg>