<svg xmlns="http://www.w3.org/2000/svg" viewBox="0 0 16 16" fill="none">
        <g fill="none" fill-rule="evenodd">
            <rect width="16" height="16" rx="2"></rect>
            <path fill="#8B97AF"
                d="M9.5 2A1.5 1.5 0 0 1 11 3.5v1c0 .176-.03.344-.086.5H12a2 2 0 0 1 2 2v5a2 2 0 0 1-2 2H4a2 2 0 0 1-2-2V7a2 2 0 0 1 2-2h1.086A1.498 1.498 0 0 1 5 4.5v-1A1.5 1.5 0 0 1 6.5 2h3zM12 6H4a1 1 0 0 0-.993.883L3 7v5a1 1 0 0 0 .883.993L4 13h8a1 1 0 0 0 .993-.883L13 12V7a1 1 0 0 0-.883-.993L12 6zm-1.5 2a.5.5 0 0 1 .5.5V9h.5a.5.5 0 1 1 0 1H11v.5a.5.5 0 1 1-1 0V10H6v.5a.5.5 0 1 1-1 0V10h-.5a.5.5 0 0 1 0-1H5v-.5a.5.5 0 0 1 1 0V9h4v-.5a.5.5 0 0 1 .5-.5zm-1-5h-3a.5.5 0 0 0-.492.41L6 3.5v1a.5.5 0 0 0 .41.492L6.5 5h3a.5.5 0 0 0 .492-.41L10 4.5v-1a.5.5 0 0 0-.41-.492L9.5 3z">
            </path>
        </g>
    </svg>