<svg xmlns="http://www.w3.org/2000/svg" viewBox="0 0 16 16" fill="none">
        <g fill="none" fill-rule="evenodd">
            <rect width="16" height="16" rx="2"></rect>
            <path fill="#8B97AF"
                d="M11.98 11.157l-.915-2.59-.489-1.387-.539-1.529h.076a.373.373 0 0 0 .373-.31l.452-2.922a.353.353 0 0 0-.087-.292.383.383 0 0 0-.285-.127H5.433a.38.38 0 0 0-.285.127.358.358 0 0 0-.088.292l.453 2.921a.373.373 0 0 0 .373.311h.076L4.02 11.157a.358.358 0 0 0 .097.383l3.656 3.36c.072.066.166.1.26.1a.383.383 0 0 0 .262-.102l3.59-3.36a.359.359 0 0 0 .095-.38zM5.873 2.73h4.255l-.34 2.191H6.212l-.34-2.19zM8.03 14.128l-3.003-2.953L6.76 5.65H9.24l.623 1.766.49 1.386.776 2.372-3.097 2.953z">
            </path>
        </g>
    </svg>