<svg xmlns="http://www.w3.org/2000/svg" viewBox="0 0 16 16" fill="none">
        <g fill="none" fill-rule="evenodd">
            <rect width="16" height="16" rx="2"></rect>
            <path fill="#8B97AF"
                d="M2.5 14a.5.5 0 1 1 0-1H3V4a2 2 0 0 1 2-2h3a2 2 0 0 1 2 2v1.268A2 2 0 0 1 13 7v6h.5a.5.5 0 1 1 0 1h-11zM8 3H5a1 1 0 0 0-.993.883L4 4v9h5V4a1 1 0 0 0-.883-.993L8 3zm3 3a1 1 0 0 0-.993.883L10 7v6h2V7a1 1 0 0 0-.883-.993L11 6zM7.5 9a.5.5 0 0 1 0 1h-2a.5.5 0 0 1 0-1h2zm0-2a.5.5 0 0 1 0 1h-2a.5.5 0 0 1 0-1h2zm0-2a.5.5 0 0 1 0 1h-2a.5.5 0 0 1 0-1h2z">
            </path>
        </g>
    </svg>