<svg xmlns="http://www.w3.org/2000/svg" viewBox="0 0 16 16" fill="none">
        <g fill="none" fill-rule="evenodd">
            <rect width="16" height="16" rx="2"></rect>
            <path fill="#8B97AF"
                d="M13 7.5a.5.5 0 0 1 .5.5c0 3.038-1.922 5.266-5.002 5.483a.06.06 0 0 1 .002.017v1a.5.5 0 1 1-1 0v-1l.003-.017C4.423 13.267 2.5 11.038 2.5 8a.5.5 0 0 1 1 0c0 2.614 1.655 4.5 4.5 4.5 2.845 0 4.5-1.886 4.5-4.5a.5.5 0 0 1 .5-.5zM8 1c2.224 0 4 1.893 4 4.197v2.606C12 10.107 10.224 12 8 12s-4-1.893-4-4.197V5.197C4 2.893 5.776 1 8 1zm0 1C6.343 2 5 3.431 5 5.197v2.606C5 9.569 6.343 11 8 11s3-1.431 3-3.197V5.197C11 3.431 9.657 2 8 2zm1.571 6c.237 0 .429.224.429.5s-.192.5-.429.5H6.43C6.192 9 6 8.776 6 8.5s.192-.5.429-.5H9.57zm0-2c.237 0 .429.224.429.5s-.192.5-.429.5H6.43C6.192 7 6 6.776 6 6.5s.192-.5.429-.5H9.57zm0-2c.237 0 .429.224.429.5s-.192.5-.429.5H6.43C6.192 5 6 4.776 6 4.5s.192-.5.429-.5H9.57z">
            </path>
        </g>
    </svg>