<svg xmlns="http://www.w3.org/2000/svg" viewBox="0 0 16 16" fill="none">
        <g fill="none" fill-rule="evenodd">
            <rect width="16" height="16" rx="2"></rect>
            <path fill="#8B97AF"
                d="M8 2.8a3 3 0 0 1 1.704 5.47C11.622 8.894 13 10.546 13 12.5c0 .276-.228.5-.51.5a.505.505 0 0 1-.51-.5C11.98 10.578 10.208 9 8 9s-3.98 1.578-3.98 3.5c0 .276-.228.5-.51.5a.505.505 0 0 1-.51-.5c0-1.954 1.378-3.606 3.296-4.232A3 3 0 0 1 8 2.8zm0 1.071A1.929 1.929 0 1 0 8 7.73 1.929 1.929 0 0 0 8 3.87z">
            </path>
        </g>
    </svg>