<svg xmlns="http://www.w3.org/2000/svg" viewBox="0 0 16 16" fill="none">
        <g fill="none" fill-rule="evenodd">
            <rect width="16" height="16" rx="2"></rect>
            <path fill="#8B97AF"
                d="M13.436 10.708L10.74 8.01c.174-.485.262-.992.262-1.511C11 4.019 8.98 2 6.5 2c-.618 0-1.22.125-1.787.37l-.268.116s.002 0 0 .001a.228.228 0 0 0-.069.371v.003l2.52 2.52L5.38 6.896l-2.47-2.47c-.003.001-.007.001-.012-.004a.268.268 0 0 0-.441.098c-.001.003-.003.002-.005.002l-.083.192A4.47 4.47 0 0 0 2 6.5a4.505 4.505 0 0 0 6.012 4.238l2.697 2.697c.364.364.848.565 1.363.565.516 0 1-.2 1.365-.565a1.931 1.931 0 0 0 0-2.727zm-.74 1.987a1.035 1.035 0 0 1-.737.305c-.278 0-.54-.108-.737-.305L8.207 9.68l-.26.112a3.546 3.546 0 0 1-4.856-4.05l2.203 2.204c.093.074.22.075.313.005l2.317-2.316v-.003a.258.258 0 0 0 .016-.344L5.743 3.091a3.546 3.546 0 0 1 4.34 3.45c0 .487-.098.96-.29 1.405l-.113.26 3.015 3.016a1.043 1.043 0 0 1 0 1.473z">
            </path>
        </g>
    </svg>