<svg xmlns="http://www.w3.org/2000/svg" viewBox="0 0 16 16" fill="none">
        <g fill="none" fill-rule="evenodd">
            <rect width="16" height="16" rx="2"></rect>
            <path fill="#8B97AF"
                d="M5.5 14a.5.5 0 1 1 0-1h2v-2.039c-1.337-.21-2.393-1.248-2.809-2.544-1.09-.452-2.091-1.636-2.184-2.75L2.5 5.5v-1a.5.5 0 0 1 .41-.492L3 4l1.5-.001V3a1 1 0 0 1 1-1h5a1 1 0 0 1 1 1v.999L13 4a.5.5 0 0 1 .5.5v1c0 1.16-1.046 2.442-2.192 2.917-.415 1.296-1.47 2.333-2.807 2.544L8.5 13h2a.5.5 0 1 1 0 1h-5zm5-11h-5v4.2C5.5 8.72 6.644 10 8 10c1.304 0 2.412-1.184 2.495-2.626L10.5 7.2V3zm2 2h-1v2.148l.045-.035c.538-.439.955-1.087.955-1.613V5zm-8 0h-1v.5c0 .482.35 1.067.823 1.5l.132.113.045.035V5z">
            </path>
        </g>
    </svg>