<svg xmlns="http://www.w3.org/2000/svg" viewBox="0 0 20 20" fill="none">
        <g fill="none" fill-rule="evenodd">
            <rect width="20" height="20" fill="#F2F2F2" rx="2"></rect>
            <path fill="#999" fill-rule="nonzero"
                d="M15.39 12.434l-2.923-2.922A4.88 4.88 0 0 0 7.875 3c-.669 0-1.32.135-1.934.4l-.291.127s.002 0 0 0a.247.247 0 0 0-.075.403v.003l2.73 2.73-1.643 1.641L3.988 5.63c-.005 0-.009 0-.014-.005a.29.29 0 0 0-.478.106c-.001.004-.003.002-.005.002l-.09.209A4.843 4.843 0 0 0 3 7.875a4.88 4.88 0 0 0 6.513 4.592l2.922 2.922c.394.394.919.612 1.477.612s1.083-.218 1.478-.612a2.092 2.092 0 0 0 0-2.955zm-.657 2.298c-.22.22-.511.34-.82.34h-.001c-.31 0-.602-.12-.82-.34l-3.361-3.36-.29.125a3.919 3.919 0 0 1-1.566.325A3.951 3.951 0 0 1 4.03 6.985L6.485 9.44a.284.284 0 0 0 .35.006l2.58-2.581v-.003a.288.288 0 0 0 .018-.384L6.985 4.03a3.951 3.951 0 0 1 4.837 3.845c0 .542-.11 1.07-.325 1.566l-.125.29 3.36 3.36a1.162 1.162 0 0 1 .001 1.641z">
            </path>
        </g>
    </svg>