<svg xmlns="http://www.w3.org/2000/svg" viewBox="0 0 20 20" fill="none">
        <g fill="none" fill-rule="evenodd">
            <rect width="20" height="20" fill="#F2F2F2" rx="2"></rect>
            <path fill="#999" fill-rule="nonzero"
                d="M13.746 13.186l-.888-2.599-.474-1.39-.523-1.533h.073a.366.366 0 0 0 .362-.312l.44-2.93a.366.366 0 0 0-.362-.42h-4.98a.367.367 0 0 0-.362.42l.439 2.93c.026.178.18.312.362.312h.073l-1.884 5.522a.367.367 0 0 0 .094.384l3.548 3.369a.363.363 0 0 0 .506-.002l3.484-3.369a.368.368 0 0 0 .092-.382zM7.82 4.734h4.13l-.33 2.197H8.15l-.33-2.197zm2.095 11.432L7 13.204l1.68-5.54h2.406l.605 1.77.475 1.39.753 2.38-3.005 2.962z">
            </path>
        </g>
    </svg>