<svg xmlns="http://www.w3.org/2000/svg" viewBox="0 0 20 20" fill="none">
        <g fill="none" fill-rule="evenodd">
            <rect width="20" height="20" fill="#F2F2F2" rx="2"></rect>
            <g fill="#999" fill-rule="nonzero">
                <path
                    d="M9.531 11.782a1.46 1.46 0 0 1-.704-.171l-5.365-3.01c-.288-.162-.454-.42-.454-.71 0-.289.165-.547.454-.71l5.365-3.009c.392-.22 1.015-.22 1.409 0l5.365 3.01c.288.162.454.42.453.71 0 .289-.165.547-.454.709l-5.365 3.01a1.46 1.46 0 0 1-.704.171zm-5.184-3.89l4.995 2.802a.434.434 0 0 0 .19.036.427.427 0 0 0 .189-.036l4.995-2.803L9.72 5.09a.433.433 0 0 0-.19-.036.425.425 0 0 0-.19.036L4.348 7.891z">
                </path>
                <path
                    d="M9.533 15.63c-2.217 0-4.468-.71-4.568-2.064a.519.519 0 0 1-.008-.087V9.48a.526.526 0 1 1 1.052 0v3.936a.522.522 0 0 1 .004.057c.004.39 1.344 1.105 3.52 1.105s3.515-.715 3.52-1.105V9.48a.526.526 0 1 1 1.052 0v4c0 .013 0 .027-.002.04-.053 1.385-2.33 2.11-4.57 2.11zM15.453 14.262a.526.526 0 0 1-.526-.526V9.56a.526.526 0 1 1 1.052 0v4.175c0 .29-.236.526-.526.526z">
                </path>
            </g>
        </g>
    </svg>