<svg xmlns="http://www.w3.org/2000/svg" viewBox="0 0 20 20" fill="none">
        <g fill="none" fill-rule="evenodd">
            <rect width="20" height="20" fill="#F2F2F2" rx="2"></rect>
            <path fill="#999" fill-rule="nonzero"
                d="M10.462 15.397v1.18c0 .234-.207.423-.462.423s-.462-.19-.462-.423v-1.18C6.44 15.181 4 12.807 4 9.912c0-.234.207-.423.462-.423.254 0 .461.19.461.423 0 2.57 2.273 4.655 5.077 4.655s5.077-2.084 5.077-4.655c0-.234.207-.423.461-.423.255 0 .462.19.462.423 0 2.896-2.44 5.269-5.538 5.485zM10 3.847c-1.784 0-3.23 1.326-3.23 2.962v3.103c0 1.636 1.446 2.962 3.23 2.962s3.23-1.326 3.23-2.962V6.809c0-1.636-1.446-2.963-3.23-2.963zM10 3c2.294 0 4.154 1.705 4.154 3.809v3.103c0 2.103-1.86 3.808-4.154 3.808-2.294 0-4.154-1.705-4.154-3.808V6.809C5.846 4.705 7.706 3 10 3zM8.283 9.633h3.385a.47.47 0 0 1 .4.211.393.393 0 0 1 0 .424.47.47 0 0 1-.4.211H8.283c-.255 0-.461-.19-.461-.423 0-.234.206-.423.461-.423zm0-3.386h3.385c.255 0 .461.19.461.424 0 .233-.206.423-.461.423H8.283c-.255 0-.461-.19-.461-.423 0-.234.206-.424.461-.424zm0 1.693h3.385c.255 0 .461.19.461.423 0 .234-.206.423-.461.423H8.283c-.255 0-.461-.189-.461-.423 0-.233.206-.423.461-.423z">
            </path>
        </g>
    </svg>