<svg xmlns="http://www.w3.org/2000/svg" viewBox="0 0 20 20" fill="none">
        <g fill="none" fill-rule="evenodd">
            <rect width="20" height="20" fill="#F2F2F2" rx="2"></rect>
            <path fill="#999" fill-rule="nonzero"
                d="M7.2 4.8v4.4a2.8 2.8 0 1 0 5.6 0V4.8H7.2zm6.4-.8v.799L16 4.8v1.6a3.201 3.201 0 0 1-2.413 3.103 3.6 3.6 0 0 1-3.186 3.275L10.4 15.2H14a.4.4 0 1 1 0 .8l-3.6-.001V16h-.8v-.001L6 16a.4.4 0 1 1 0-.8h3.6v-2.422a3.601 3.601 0 0 1-3.188-3.276A3.2 3.2 0 0 1 4 6.4V4.8l2.399-.001L6.4 4h7.2zm1.6 1.6h-1.6v3.063a2.402 2.402 0 0 0 1.593-2.08L15.2 6.4v-.8zm-8.8 0H4.8v.8c0 1.045.668 1.934 1.6 2.263V5.6z">
            </path>
        </g>
    </svg>